<svg width="269" height="207" viewBox="0 0 269 207" fill="none" xmlns="http://www.w3.org/2000/svg">
<g clip-path="url(#clip0)">
<path d="M105.985 110.076C105.985 110.076 107.871 120.732 105.985 127.863C104.1 134.994 117.379 147.699 124.674 147.863C131.97 148.027 139.593 128.928 139.593 128.928C139.593 128.928 137.38 113.928 139.593 108.846C141.806 103.846 105.985 110.076 105.985 110.076Z" fill="#FFA9A0"/>
<path d="M105.33 112.453C105.33 112.453 116.805 128.027 138.937 116.551C138.937 116.551 132.871 131.306 122.543 130.486C112.215 129.666 105.33 112.453 105.33 112.453Z" fill="#191919"/>
<path d="M144.018 31.3031C144.018 31.3031 168.445 26.6309 171.97 49.3363C175.494 72.0418 147.133 92.2062 181.478 102.206C191.478 105.157 176.396 116.059 135.739 115.322C118.936 114.994 144.018 31.3031 144.018 31.3031Z" fill="#BC3426"/>
<path d="M93.5259 43.1888C93.5259 43.1888 71.2303 43.1888 68.3614 60.8121C65.4925 78.4355 79.1813 85.9767 75.9845 93.7637C73.6894 99.2557 72.7877 101.551 60.9842 102.452C45.9838 103.6 111.231 127.945 116.641 107.207C122.051 86.4685 118.363 41.1395 118.363 41.1395L93.5259 43.1888Z" fill="#BC3426"/>
<path d="M93.116 48.5987C93.116 48.5987 82.2141 99.5015 106.969 115.895C110.903 118.518 115.74 120.24 121.723 120.732C127.953 121.305 133.363 119.912 138.035 117.207C165.413 101.223 165.659 37.6148 152.708 30.8933C137.461 23.0243 99.2637 12.3683 93.116 48.5987Z" fill="#FFA9A0"/>
<path d="M162.626 33.9262C162.626 33.9262 146.478 71.714 100.575 53.107C53.771 34.1721 88.2801 7.85998 114.264 20.1554C132.953 29.008 154.101 14.9093 162.626 33.9262Z" fill="#BC3426"/>
<path d="M102.624 73.3533C102.624 73.3533 107.788 75.4025 115.739 74.091C123.527 72.7795 115.985 67.7794 108.362 67.6155C103.444 67.6155 96.2308 69.9106 102.624 73.3533Z" fill="white"/>
<path d="M111.477 68.5172C114.018 72.0418 111.067 74.173 109.756 74.337C109.182 74.4189 107.051 74.173 106.149 73.1894C104.346 71.2221 105.576 68.5172 106.723 67.8614C107.297 67.5335 107.871 67.3696 109.182 67.4516C110.576 67.5335 111.149 68.0253 111.477 68.5172Z" fill="black"/>
<path d="M134.593 75.1566C134.593 75.1566 139.757 77.2058 147.708 75.8943C155.495 74.5828 147.954 69.5827 140.33 69.4188C135.412 69.4188 128.199 71.7139 134.593 75.1566Z" fill="white"/>
<path d="M143.446 70.3205C145.987 73.8452 143.036 75.9764 141.724 76.1403C141.15 76.2223 139.019 75.9764 138.118 74.9927C136.314 73.0255 137.544 70.3205 138.691 69.6647C139.265 69.3369 139.839 69.1729 141.15 69.2549C142.544 69.3369 143.118 69.8287 143.446 70.3205Z" fill="black"/>
<path d="M90.575 66.222C90.575 66.222 85.2471 60.2383 81.9683 67.6975C78.6895 75.1567 87.0504 82.8618 91.1488 83.4356C95.2473 84.0913 90.575 66.222 90.575 66.222Z" fill="#FFA9A0"/>
<path d="M160.167 70.1566C160.167 70.1566 166.151 64.8286 168.528 72.6156C170.905 80.3207 161.807 87.0422 157.626 87.2061C153.61 87.3701 160.167 70.1566 160.167 70.1566Z" fill="#FFA9A0"/>
<path d="M86.3945 70.8943C86.3945 71.4681 86.4765 72.1238 86.6404 72.6976C87.0503 74.0091 87.788 75.2386 88.7717 76.2223C89.0176 75.8944 89.2635 75.5665 89.5094 75.2386C89.2635 75.0747 89.0176 74.9927 88.7717 74.9108C88.0339 74.7468 87.2962 74.8288 86.6404 74.9927C85.9027 75.1567 86.2306 76.3862 86.9683 76.1403C87.2962 76.0583 87.6241 75.9764 87.952 75.9764C88.1159 75.9764 88.1979 75.9764 88.3618 75.9764C88.5257 75.9764 88.3618 75.9764 88.4438 75.9764C88.5257 75.9764 88.5257 75.9764 88.6077 75.9764C88.6897 75.9764 88.7717 75.9764 88.8536 76.0583H88.9356C89.0176 76.0583 88.7716 75.9764 88.9356 76.0583C89.0176 76.0583 89.0176 76.1403 89.0995 76.1403C89.3454 76.3042 89.7553 76.2223 89.9192 75.9764C90.0832 75.7305 90.0832 75.4026 89.8372 75.1567C89.3454 74.6649 88.9356 74.173 88.6077 73.5173C88.3618 73.0255 88.1979 72.6976 88.0339 72.1238C87.952 71.9599 87.952 71.714 87.87 71.4681C87.87 71.3861 87.87 71.3861 87.87 71.3041C87.87 71.2222 87.87 71.4681 87.87 71.3041C87.87 71.2222 87.87 71.1402 87.87 71.1402C87.87 70.9762 87.87 70.8123 87.87 70.7303C87.87 70.4025 87.5421 70.0746 87.2142 70.0746C86.7224 70.2385 86.4765 70.5664 86.3945 70.8943Z" fill="#020202"/>
<path d="M161.397 75.0747V75.1567C161.397 75.3206 161.397 74.9927 161.397 75.1567C161.397 75.2386 161.397 75.2386 161.397 75.3206C161.315 75.7304 161.233 76.0583 161.069 76.3862C161.069 76.3862 160.987 76.5501 161.069 76.4682C161.069 76.5501 160.987 76.5501 160.987 76.6321C160.905 76.7141 160.905 76.878 160.823 76.96C160.659 77.2059 160.495 77.4518 160.331 77.6977C160.003 78.1895 159.511 78.6813 159.019 79.0912C158.774 79.2551 158.61 79.583 158.774 79.9109C158.937 80.2388 159.347 80.3207 159.593 80.1568C159.593 80.1568 159.593 80.1568 159.675 80.1568C159.593 80.2388 159.511 80.2388 159.675 80.1568C159.757 80.1568 159.839 80.1568 159.839 80.0748C159.921 80.0748 159.921 80.0748 160.003 80.0748C160.085 80.0748 159.839 80.0748 160.003 80.0748C160.577 80.0748 161.069 80.1568 161.642 80.3207C161.97 80.4027 162.298 80.1568 162.38 79.9109C162.462 79.583 162.298 79.2551 161.97 79.1732C161.069 78.8453 159.921 78.5994 159.019 79.0912C159.265 79.4191 159.429 79.8289 159.675 80.1568C160.823 79.2551 161.724 78.1895 162.298 76.796C162.544 76.2223 162.708 75.6485 162.708 74.9927C162.708 74.6649 162.38 74.337 162.052 74.337C161.642 74.5009 161.397 74.7468 161.397 75.0747Z" fill="#020202"/>
<path d="M125.412 68.7631C124.756 71.3861 125.002 74.0911 125.002 76.7141C125.002 79.501 124.756 82.288 124.264 85.0749C123.772 87.7799 123.035 90.4029 122.215 92.944C121.887 93.8456 121.723 94.5834 122.625 95.1572C123.526 95.8129 124.756 96.1408 125.822 96.3867C126.559 96.5506 126.887 95.4031 126.15 95.2391C125.412 95.0752 123.199 94.6653 123.199 93.7637C123.199 93.2719 123.608 92.6161 123.772 92.2063C123.936 91.6325 124.182 90.9767 124.346 90.4029C125.002 88.1078 125.494 85.7307 125.822 83.3536C126.15 81.1404 126.313 78.8453 126.313 76.5501C126.313 74.0911 126.068 71.55 126.641 69.0909C126.805 68.2713 125.658 67.9434 125.412 68.7631Z" fill="#020202"/>
<path d="M124.264 110.485C124.674 109.83 125.412 109.42 126.15 109.256C126.478 109.174 126.887 109.174 127.215 109.256C127.707 109.338 128.035 109.584 128.527 109.748C129.592 110.076 130.33 109.256 130.986 108.518C131.806 107.616 132.543 106.715 133.363 105.813C133.855 105.239 133.035 104.338 132.461 104.911C131.642 105.813 130.904 106.715 130.084 107.616C129.838 107.862 129.429 108.6 129.019 108.6C128.773 108.6 128.527 108.354 128.281 108.272C128.117 108.19 127.871 108.108 127.625 108.026C125.904 107.616 124.101 108.354 123.117 109.83C122.789 110.567 123.855 111.141 124.264 110.485Z" fill="#020202"/>
<path d="M113.199 63.3531C111.068 62.3694 108.363 62.1235 106.068 62.2055C103.281 62.2875 100.822 63.8449 98.0347 64.0088C97.215 64.0908 97.215 65.3203 98.0347 65.2384C100.658 65.0744 102.953 63.599 105.494 63.435C106.887 63.3531 108.281 63.435 109.592 63.681C110.576 63.8449 111.642 64.0088 112.461 64.4187C113.281 64.7466 113.855 63.6809 113.199 63.3531Z" fill="#020202"/>
<path d="M138.772 65.9761C139.756 65.6482 140.739 65.5663 141.723 65.5663C143.116 65.4843 144.592 65.4843 145.985 65.8122C148.526 66.304 150.576 67.9434 153.117 68.4352C153.854 68.5991 154.182 67.3696 153.445 67.2876C150.74 66.7958 148.526 64.9925 145.821 64.5826C143.526 64.2548 140.739 64.1728 138.444 64.9105C137.706 64.9925 138.034 66.222 138.772 65.9761Z" fill="#020202"/>
<path d="M107.625 126.952C107.625 126.952 118.281 137.69 140.331 128.1C140.331 128.1 179.02 130.395 203.365 147.034C227.71 163.674 219.759 200.478 219.759 200.478H25C25 200.478 25.2459 158.674 41.9676 143.92C54.9187 132.444 107.625 126.952 107.625 126.952Z" fill="#F5B807"/>
<path d="M63.1976 190L61.0664 200.656H65.0009L63.1976 190Z" fill="#191919"/>
<path d="M186.479 188.684V200.979H183.2L186.479 188.684Z" fill="#191919"/>
<path d="M146.232 179.339C147.626 179.339 148.937 179.257 150.33 179.094C151.232 178.93 152.052 178.438 152.052 177.372C152.052 177.29 152.052 177.208 152.052 177.126C152.052 177.044 152.052 176.962 152.052 176.88V168.356C152.052 167.618 151.642 167.126 151.15 166.88C150.904 166.388 150.412 165.978 149.675 165.978C148.363 165.978 147.052 165.978 145.74 166.142" fill="white"/>
<path d="M145.74 166.06V166.224C145.74 166.306 145.822 166.388 145.904 166.47C145.986 166.552 146.068 166.552 146.232 166.552L148.363 166.47C148.773 166.47 149.265 166.47 149.675 166.47C149.839 166.47 150.003 166.552 150.167 166.552C150.249 166.552 150.413 166.634 150.495 166.716C150.577 166.716 150.577 166.798 150.659 166.88L150.74 166.962V167.044L150.822 167.126C150.822 167.126 150.822 167.208 150.904 167.208L151.068 167.29C151.15 167.372 151.232 167.372 151.232 167.372C151.314 167.372 151.314 167.454 151.396 167.536C151.478 167.618 151.56 167.782 151.642 167.864C151.724 167.946 151.724 168.028 151.724 168.192C151.724 168.356 151.724 168.683 151.724 168.929V169.749V172.126V172.372C151.724 173.192 151.724 173.93 151.724 174.749C151.724 175.405 151.642 176.061 151.724 176.716C151.724 176.798 151.724 176.962 151.724 176.962V177.126C151.724 177.208 151.724 177.372 151.724 177.372C151.724 177.536 151.724 177.618 151.724 177.782C151.642 178.274 151.232 178.52 150.659 178.684C150.331 178.766 149.839 178.766 149.429 178.848C148.855 178.848 148.281 178.93 147.708 179.012C147.38 179.012 147.134 179.012 146.806 179.012C146.642 179.012 146.478 179.012 146.478 179.094C146.478 179.176 146.478 179.258 146.478 179.339C146.56 179.503 146.642 179.667 146.642 179.831C146.642 179.913 146.642 179.913 146.888 179.913H147.052C147.462 179.913 147.954 179.831 148.363 179.831C148.527 179.831 148.691 179.831 148.855 179.749C148.937 179.749 149.101 179.749 149.183 179.667C149.429 179.667 149.757 179.667 150.003 179.585H150.085C150.167 179.585 150.331 179.585 150.413 179.503C150.577 179.503 150.74 179.421 150.822 179.421C151.232 179.339 151.724 179.094 152.052 178.766C152.216 178.52 152.462 178.274 152.544 177.946C152.626 177.782 152.626 177.618 152.626 177.454C152.626 177.372 152.626 177.29 152.626 177.208V177.126V177.044C152.708 176.798 152.708 176.553 152.626 176.307C152.626 176.061 152.544 175.897 152.626 175.651C152.626 175.569 152.626 175.405 152.626 175.323C152.626 175.159 152.626 175.077 152.626 174.913C152.626 174.585 152.626 174.257 152.626 173.848C152.626 173.766 152.626 173.766 152.626 173.766C152.708 173.602 152.626 173.438 152.626 173.356C152.626 173.192 152.626 173.028 152.626 172.946C152.626 172.782 152.708 172.7 152.626 172.536C152.626 172.208 152.544 171.798 152.626 171.47C152.626 171.225 152.626 171.061 152.626 170.815C152.626 170.733 152.626 170.651 152.626 170.651C152.626 170.569 152.626 170.487 152.626 170.487V168.847C152.626 168.602 152.626 168.192 152.544 167.864C152.462 167.536 152.216 167.208 151.97 166.962C151.888 166.88 151.888 166.88 151.806 166.88C151.724 166.88 151.56 166.798 151.642 166.798C151.642 166.798 151.642 166.798 151.56 166.716C151.396 166.47 151.232 166.306 150.986 166.142C150.659 165.897 150.249 165.733 149.921 165.733C149.511 165.733 149.101 165.733 148.691 165.733H147.298L146.15 165.815C145.904 165.815 145.822 165.815 145.822 165.979C145.658 165.815 145.658 165.897 145.74 166.06Z" fill="#020202"/>
<path d="M145.823 166.06C145.823 165.651 145.741 165.323 145.741 164.913C145.741 164.831 145.741 164.667 145.659 164.585C145.659 163.765 145.167 162.946 144.184 162.946C129.921 162.946 115.741 163.847 101.478 162.946C101.15 162.946 100.822 163.028 100.576 163.192C99.0189 163.192 97.3795 163.274 95.8221 163.437C94.8384 163.519 94.3466 164.503 94.3466 165.323C94.3466 165.487 94.2646 165.651 94.2646 165.815C94.2646 170.241 94.7565 177.372 95.3302 181.717C95.4942 182.782 96.2319 183.11 96.8877 182.946C96.9696 182.946 97.1336 183.028 97.2155 183.028C112.954 183.93 128.692 183.028 144.43 182.782C144.922 182.782 145.331 182.536 145.577 182.208C145.905 181.963 146.151 181.471 146.151 180.897C146.151 180.405 146.151 179.913 146.151 179.421L145.823 166.06Z" fill="white"/>
<path d="M145.823 166.142C145.741 166.142 145.659 166.142 145.659 166.142C145.577 166.06 145.495 166.634 145.413 167.208C145.413 167.536 145.331 168.028 145.413 169.011L145.659 175.405L145.823 178.602C145.823 179.176 145.823 179.667 145.905 180.241C145.905 180.487 145.905 180.815 145.905 180.979C145.905 181.225 145.823 181.389 145.741 181.553C145.659 181.635 145.659 181.717 145.495 181.799C145.413 181.881 145.413 181.881 145.413 181.963L145.331 182.044L145.249 182.126C145.085 182.29 144.921 182.29 144.593 182.29H142.626C141.314 182.29 140.003 182.372 138.773 182.372C137.38 182.372 135.986 182.454 134.757 182.454C132.626 182.536 130.494 182.618 128.281 182.618C125.904 182.7 123.445 182.7 121.068 182.782C120.248 182.782 119.428 182.782 118.609 182.864C115.412 182.864 112.133 182.864 108.936 182.864C106.559 182.864 104.182 182.782 101.887 182.7C100.74 182.7 99.51 182.618 98.3624 182.536C98.0345 182.536 97.7886 182.536 97.4608 182.454H97.2149C97.1329 182.454 97.0509 182.454 97.0509 182.454C96.9689 182.454 96.9689 182.454 96.9689 182.454C96.887 182.454 96.723 182.454 96.6411 182.454C96.2312 182.372 96.0673 182.044 95.9853 181.471C95.9033 180.979 95.9033 180.487 95.8214 180.077C95.2476 175.487 95.0017 170.815 94.9197 166.224C94.9197 166.061 94.9197 165.897 94.9197 165.733V165.569V165.487V165.323V165.241C94.9197 164.913 95.0017 164.667 95.1656 164.421C95.3296 164.175 95.4935 164.011 95.7394 163.929C95.8214 163.847 95.9853 163.847 96.0673 163.847H96.5591C98.0345 163.765 99.428 163.765 100.903 163.683L101.067 163.601H101.149C101.149 163.601 101.231 163.601 101.231 163.519C101.313 163.519 101.395 163.519 101.477 163.519L102.297 163.601C102.871 163.601 103.363 163.683 103.936 163.683C106.231 163.765 108.609 163.847 110.822 163.929C114.756 164.011 118.609 164.011 122.461 163.929C125.084 163.847 127.789 163.847 130.412 163.765C133.855 163.683 137.38 163.601 140.822 163.519H143.445H144.101C144.347 163.519 144.429 163.519 144.593 163.601C144.839 163.683 145.085 163.929 145.167 164.257C145.331 165.241 145.331 165.897 145.495 166.06C145.577 166.224 145.659 166.306 145.741 166.06C145.905 165.651 145.986 165.323 146.15 164.995C146.232 164.913 146.232 164.831 146.15 164.667C146.15 164.667 146.15 164.585 146.15 164.503C146.15 164.421 146.15 164.339 146.068 164.175C145.986 163.929 145.905 163.601 145.577 163.192C145.413 162.946 145.085 162.7 144.757 162.618C144.511 162.536 144.347 162.536 144.101 162.536H143.609H142.626H140.659C139.347 162.536 138.117 162.618 136.806 162.618C135.822 162.618 134.675 162.618 133.773 162.7C133.035 162.782 132.38 162.782 131.642 162.782C130.084 162.782 128.445 162.782 127.052 162.946C126.97 162.946 126.642 162.946 126.56 162.946C125.904 162.946 125.33 162.946 124.675 163.028C123.855 163.028 123.035 163.11 122.133 163.11C119.674 163.11 117.297 163.11 114.838 163.11C111.723 163.11 108.691 162.946 105.494 162.864C105.33 162.864 105.084 162.864 105.002 162.864C104.346 162.782 103.69 162.782 102.953 162.7L101.887 162.618H101.395C101.231 162.618 100.985 162.618 100.74 162.7C100.658 162.7 100.494 162.782 100.412 162.782C100.33 162.782 100.33 162.864 100.248 162.864C99.7559 162.864 99.1821 162.946 98.6903 162.946C98.1165 162.946 97.6247 163.028 96.9689 163.028C96.723 163.028 96.3952 163.028 96.0673 163.028C95.9033 163.028 95.7394 163.028 95.5755 163.028C95.4115 163.028 95.2476 163.11 95.0837 163.11C93.9361 163.519 93.6082 164.749 93.6082 165.569C93.5262 165.897 93.6082 166.142 93.6082 166.388V167.126V168.684C93.6082 169.667 93.6902 170.733 93.7722 171.716C93.7722 171.962 93.7722 172.208 93.7722 172.372C93.7722 173.192 93.8541 174.339 93.9361 174.913C94.0181 175.815 94.1 176.716 94.182 177.454C94.264 178.438 94.264 179.012 94.3459 179.831L94.5918 181.471C94.6738 181.963 94.7558 182.782 95.4115 183.192C95.7394 183.356 96.0673 183.438 96.4771 183.438C96.5591 183.438 96.723 183.438 96.6411 183.438H96.723C96.887 183.438 97.0509 183.438 97.1329 183.52C97.7067 183.52 98.1985 183.602 98.7723 183.602C100.002 183.684 101.231 183.766 102.543 183.766C102.953 183.766 103.363 183.766 103.772 183.848C104.1 183.848 104.592 183.848 105.002 183.93C108.199 184.012 111.396 184.012 114.51 184.012C117.953 183.93 121.396 183.93 124.838 183.848C125.084 183.848 125.576 183.848 125.658 183.848C126.068 183.766 126.642 183.766 127.216 183.766C127.707 183.766 128.281 183.766 128.855 183.766C130.084 183.766 131.232 183.684 132.462 183.684C134.265 183.684 136.068 183.602 137.872 183.602L141.314 183.52H143.036H143.855H144.265C144.429 183.52 144.675 183.52 144.839 183.438C145.085 183.356 145.249 183.274 145.413 183.11C145.495 183.028 145.577 182.946 145.659 182.864L145.741 182.782L145.823 182.7C146.15 182.372 146.396 181.963 146.478 181.553C146.56 181.061 146.478 180.815 146.478 180.405V179.421L146.314 175.323C146.232 173.11 146.15 170.897 146.068 168.602C145.986 167.044 145.986 166.798 145.905 166.47C146.068 165.979 145.905 166.142 145.823 166.142Z" fill="#020202"/>
<path d="M105.904 165.733C103.854 165.815 101.805 165.897 99.674 165.979C99.0182 165.487 98.0346 166.224 98.0346 168.274C97.9526 171.552 98.0346 174.831 98.1985 178.192C98.1985 178.356 98.1985 178.438 98.1985 178.602C98.1985 179.913 98.5264 181.143 99.3461 181.061C101.477 180.897 103.69 180.733 105.822 180.815C106.232 180.815 106.477 180.487 106.641 179.995C107.051 179.667 107.379 178.93 107.379 177.7C107.379 174.257 107.133 170.897 106.969 167.536C106.969 166.552 106.395 165.733 105.904 165.733Z" fill="#F46322"/>
<path d="M117.379 165.733C115.33 165.815 113.281 165.897 111.15 165.979C110.494 165.487 109.51 166.224 109.51 168.274C109.428 171.552 109.51 174.831 109.674 178.192C109.674 178.356 109.674 178.438 109.674 178.602C109.674 179.913 110.002 181.143 110.822 181.061C112.953 180.897 115.166 180.733 117.297 180.815C117.707 180.815 117.953 180.487 118.117 179.995C118.527 179.667 118.855 178.93 118.855 177.7C118.855 174.257 118.609 170.897 118.445 167.536C118.445 166.552 117.871 165.733 117.379 165.733Z" fill="#F46322"/>
<path d="M185.296 138.968C185.296 138.886 185.378 138.886 185.378 138.804C185.46 138.722 185.132 138.558 184.805 138.312C184.641 138.23 184.395 138.066 183.821 137.902C181.362 137.082 178.985 136.263 176.526 135.525C175.05 135.115 173.575 134.623 172.099 134.213C171.28 133.967 170.46 133.721 169.804 133.558C168.575 133.23 167.345 132.902 166.034 132.574C164.64 132.246 163.247 131.836 161.853 131.59C161.361 131.508 160.87 131.344 160.378 131.262C158.492 130.853 156.607 130.361 154.64 130.033L146.279 128.557C146.033 128.475 145.705 128.475 145.459 128.393C144.066 128.23 142.754 127.82 141.197 127.902C140.459 127.984 139.64 128.312 139.066 128.803L138.246 129.377L137.344 129.869C135.377 130.935 133.164 131.59 130.869 132.082C129.557 132.328 128.164 132.492 126.852 132.574C124.557 132.738 122.262 132.82 119.967 132.656C118.409 132.574 116.934 132.246 115.459 131.672C113.491 130.935 111.606 130.197 109.803 129.213C108.901 128.721 107.999 128.23 107.18 127.574C106.606 127.164 106.36 127 106.196 127C106.032 127 105.95 127.082 106.032 127.246C106.114 127.492 106.196 127.738 106.196 127.984C106.196 128.148 106.196 128.148 106.934 128.639L107.262 128.885C108.573 129.787 109.967 130.443 111.36 131.098C111.934 131.344 112.508 131.59 113.082 131.754C113.491 131.918 113.901 132.082 114.311 132.164C115.213 132.492 116.114 132.902 117.016 132.984C117.098 132.984 117.262 133.066 117.344 133.066C117.754 133.148 118.082 133.23 118.491 133.23C118.983 133.312 119.475 133.312 119.967 133.394C121.442 133.476 122.918 133.476 124.393 133.476C126.279 133.394 128.082 133.394 129.967 133.066C130.049 133.066 130.213 133.066 130.295 133.066C131.115 132.984 131.934 132.82 132.754 132.574C133.492 132.328 134.23 132.082 134.967 131.918C135.213 131.836 135.705 131.672 135.951 131.508C136.443 131.262 136.935 131.098 137.344 130.853C137.918 130.607 138.41 130.279 138.984 129.951L139.721 129.459C139.967 129.295 140.131 129.131 140.377 129.049C140.459 128.967 140.623 128.967 140.705 128.967C141.115 128.885 141.771 128.803 142.099 128.885C142.59 128.885 143.164 128.967 143.574 129.049C144.148 129.131 144.476 129.295 144.968 129.377C146.279 129.541 147.509 129.787 148.82 130.033C149.558 130.197 150.296 130.361 151.033 130.443C151.279 130.443 151.525 130.525 151.689 130.607C151.935 130.689 152.181 130.689 152.427 130.771C154.312 131.098 156.197 131.426 158.001 131.836C159.968 132.246 162.017 132.738 163.984 133.23C164.148 133.312 164.394 133.312 164.476 133.312C164.722 133.312 165.05 133.394 165.378 133.476C165.706 133.558 166.034 133.64 166.279 133.721C167.017 133.885 167.673 134.049 168.329 134.295C169.312 134.623 170.378 134.869 171.444 135.197C172.755 135.607 174.067 135.935 175.378 136.344C176.935 136.836 178.493 137.328 180.05 137.82C181.28 138.23 182.591 138.64 183.821 139.049C184.641 139.377 184.886 139.377 185.05 139.377C185.296 139.213 185.296 139.049 185.296 138.968Z" fill="#0A0A0A"/>
</g>
<defs>
<clipPath id="clip0">
<rect width="269" height="207" fill="white"/>
</clipPath>
</defs>
</svg>
