<svg width="269" height="207" viewBox="0 0 269 207" fill="none" xmlns="http://www.w3.org/2000/svg">
<g clip-path="url(#clip0)">
<path d="M105.985 109.594C105.985 109.594 107.871 120.25 105.985 127.381C104.1 134.512 117.379 147.218 124.674 147.382C131.97 147.546 139.593 128.447 139.593 128.447C139.593 128.447 137.38 113.446 139.593 108.364C141.806 103.364 105.985 109.594 105.985 109.594Z" fill="#FFA9A0"/>
<path d="M105.33 111.971C105.33 111.971 116.805 127.545 138.937 116.069C138.937 116.069 132.871 130.824 122.543 130.004C112.215 129.184 105.33 111.971 105.33 111.971Z" fill="#191919"/>
<path d="M162.872 39.6741C162.872 39.6741 187.627 42.2151 184.512 64.9206C181.397 87.626 148.527 99.0197 178.528 118.364C187.299 124.02 171.151 128.447 132.461 116.151C116.395 110.987 162.872 39.6741 162.872 39.6741Z" fill="#BC3426"/>
<path d="M111.068 36.5593C111.068 36.5593 89.6737 30.1657 81.8866 46.2317C74.0996 62.2976 85.0834 73.4454 79.7554 80.003C75.9849 84.5932 74.4274 86.5605 62.9518 84.1014C48.2793 80.9046 103.772 122.955 115.002 104.512C126.232 86.0687 135.494 41.6414 135.494 41.6414L111.068 36.5593Z" fill="#BC3426"/>
<path d="M109.101 41.7233C109.101 41.7233 84.1 87.3802 103.117 110.168C106.15 113.774 110.33 116.807 115.822 119.02C121.642 121.315 127.216 121.561 132.462 120.332C163.282 112.873 181.725 51.9695 171.151 41.8053C158.938 29.8378 125.412 8.77174 109.101 41.7233Z" fill="#FFA9A0"/>
<path d="M179.922 47.4612C179.922 47.4612 153.61 79.0193 114.92 48.1169C75.493 16.5588 116.068 1.23057 137.462 20.4933C152.872 34.2641 177.135 26.805 179.922 47.4612Z" fill="#BC3426"/>
<path d="M111.15 68.1174C111.15 68.1174 115.576 71.5601 123.527 72.6257C131.396 73.6093 125.576 66.642 118.363 64.3468C113.609 62.8714 106.067 63.0353 111.15 68.1174Z" fill="white"/>
<path d="M120.986 66.0682C122.379 70.1666 118.937 71.3142 117.707 71.2322C117.133 71.1503 115.166 70.3306 114.592 69.101C113.445 66.7239 115.412 64.5108 116.724 64.1829C117.297 64.0189 117.953 64.0189 119.265 64.5108C120.494 64.8386 120.822 65.4944 120.986 66.0682Z" fill="black"/>
<path d="M141.233 79.0193C141.233 79.0193 145.659 82.462 153.61 83.5276C161.479 84.5112 155.659 77.5438 148.446 75.2487C143.692 73.7732 136.15 73.8552 141.233 79.0193Z" fill="white"/>
<path d="M151.151 76.8881C152.544 80.9866 149.101 82.1341 147.872 82.0522C147.298 81.9702 145.331 81.1505 144.757 79.921C143.609 77.5439 145.577 75.3307 146.888 75.0028C147.462 74.8389 148.118 74.8389 149.429 75.3307C150.741 75.8225 150.905 76.3143 151.151 76.8881Z" fill="black"/>
<path d="M101.641 57.8713C101.641 57.8713 98.1983 50.658 92.9523 56.8057C87.7063 62.9534 93.5261 72.7897 97.2147 74.511C100.903 76.2324 101.641 57.8713 101.641 57.8713Z" fill="#FFA9A0"/>
<path d="M167.217 81.5604C167.217 81.5604 174.512 78.1996 174.512 86.3146C174.512 94.4295 163.938 98.2001 159.922 97.2165C155.987 96.1509 167.217 81.5604 167.217 81.5604Z" fill="#FFA9A0"/>
<path d="M96.3132 61.15C96.1493 61.7238 96.0673 62.3795 96.0673 62.9533C96.0673 64.3468 96.3952 65.7403 97.1329 66.9698C97.4608 66.7239 97.7887 66.478 98.1165 66.2321C97.9526 65.9862 97.7067 65.8222 97.4608 65.7403C96.805 65.4124 96.0673 65.2485 95.3296 65.2485C95.0017 65.2485 94.6738 65.5763 94.6738 65.9042C94.6738 66.2321 94.9197 66.478 95.3296 66.56C95.6575 66.56 95.9853 66.6419 96.3132 66.7239C96.6411 66.8059 96.6411 66.8059 96.887 66.9698C96.969 67.0518 97.0509 67.0518 97.1329 67.1338C97.2149 67.2157 97.0509 67.0518 97.1329 67.1338C97.1329 67.1338 97.1329 67.1338 97.2149 67.2157L97.2968 67.2977C97.4608 67.5436 97.8706 67.5436 98.1165 67.3797C98.3624 67.2157 98.4444 66.8878 98.2805 66.56C97.7067 65.4944 97.3788 64.3468 97.3788 63.1173C97.3788 62.8714 97.3788 62.7074 97.4608 62.4615C97.4608 62.3795 97.4608 62.5435 97.4608 62.4615C97.4608 62.3795 97.4608 62.3795 97.4608 62.2976C97.4608 62.2156 97.4608 62.1336 97.5427 62.0517C97.5427 61.8877 97.6247 61.8058 97.6247 61.6418C97.7067 61.3139 97.4608 60.9861 97.2149 60.9041C96.805 60.5762 96.4771 60.8221 96.3132 61.15Z" fill="#020202"/>
<path d="M166.971 86.6425C166.889 86.8064 167.053 86.5605 166.971 86.6425C166.971 86.7244 166.889 86.8064 166.807 86.8884C166.725 87.0523 166.643 87.1343 166.561 87.2982C166.479 87.3802 166.479 87.4622 166.397 87.5441C166.397 87.6261 166.315 87.6261 166.315 87.7081C166.315 87.7081 166.315 87.79 166.233 87.79C166.315 87.7081 166.315 87.7081 166.233 87.79C165.905 88.1999 165.495 88.6097 165.085 88.9376C165.167 88.8556 165.003 89.0196 165.003 89.0196C164.921 89.1015 164.839 89.1015 164.839 89.1835C164.675 89.2655 164.512 89.3474 164.43 89.4294C164.102 89.5934 163.774 89.7573 163.528 89.8393C163.2 89.9212 163.036 90.2491 163.118 90.577C163.2 90.9049 163.528 91.0688 163.856 90.9868C163.938 90.9868 163.856 90.9868 163.774 90.9868C163.774 90.9868 163.856 90.9868 163.938 90.9868C164.02 90.9868 164.102 90.9868 164.102 90.9868C164.102 90.9868 164.266 90.9868 164.184 90.9868C164.102 90.9868 164.266 90.9868 164.266 90.9868C164.348 90.9868 164.512 91.0688 164.594 91.0688C164.675 91.0688 164.675 91.0688 164.757 91.1508C164.757 91.1508 164.839 91.1508 164.839 91.2327C164.757 91.2327 164.757 91.2327 164.839 91.2327C165.167 91.3967 165.495 91.5606 165.741 91.8065C165.987 91.9705 166.397 91.8885 166.561 91.5606C166.725 91.2327 166.643 90.9049 166.315 90.7409C165.577 90.1671 164.512 89.5934 163.528 89.8393C163.61 90.2491 163.774 90.659 163.856 90.9868C165.577 90.3311 167.217 89.1015 168.036 87.3802C168.118 87.2163 168.2 87.0523 168.282 86.8884C168.364 86.5605 168.118 86.2326 167.872 86.1507C167.38 86.0687 167.135 86.3146 166.971 86.6425Z" fill="#020202"/>
<path d="M134.347 70.2486C132.953 72.5437 132.462 75.1667 131.724 77.7078C130.904 80.3308 129.92 82.8718 128.691 85.3309C127.461 87.708 126.068 90.0031 124.51 92.2163C123.937 92.954 123.363 93.6917 124.019 94.5934C124.674 95.4951 125.904 96.2328 126.806 96.8066C127.461 97.2164 128.117 96.1508 127.461 95.741C126.888 95.4131 126.396 95.0852 125.904 94.6754C125.74 94.5114 125.412 94.3475 125.248 94.1016C125.002 93.7737 125.002 93.6917 125.166 93.3639C125.33 92.8721 125.904 92.3802 126.232 91.8884C126.56 91.3966 126.888 90.9048 127.215 90.413C128.527 88.3637 129.593 86.3145 130.576 84.1013C131.478 82.0521 132.298 79.9209 132.953 77.7897C133.691 75.4126 134.101 72.9535 135.412 70.8223C135.822 70.1666 134.757 69.5928 134.347 70.2486Z" fill="#020202"/>
<path d="M121.314 109.922C121.97 109.43 122.789 109.184 123.609 109.348C124.019 109.43 124.347 109.512 124.675 109.758C125.085 110.004 125.33 110.413 125.74 110.577C126.642 111.069 127.544 110.413 128.363 109.922C129.347 109.266 130.331 108.692 131.396 108.036C132.052 107.627 131.478 106.561 130.74 106.971C129.757 107.627 128.773 108.2 127.708 108.856C127.38 109.02 126.724 109.676 126.314 109.512C126.15 109.43 125.904 109.184 125.74 109.02C125.576 108.856 125.412 108.774 125.248 108.61C123.691 107.709 121.724 107.872 120.412 109.02C119.838 109.512 120.74 110.413 121.314 109.922Z" fill="#020202"/>
<path d="M124.101 61.5599C122.461 60.0844 120.084 59.1008 118.035 58.527C116.642 58.1172 115.248 58.0352 113.855 58.0352C112.379 58.0352 110.904 58.1991 109.428 57.8713C108.691 57.7073 108.363 58.8549 109.1 59.0188C111.805 59.5926 114.51 58.8549 117.215 59.5107C118.445 59.8385 119.674 60.3303 120.822 60.9041C121.642 61.314 122.543 61.8058 123.281 62.3796C123.855 62.9534 124.675 62.0517 124.101 61.5599Z" fill="#020202"/>
<path d="M147.954 71.3962C148.937 71.3962 150.003 71.5601 150.905 71.806C152.216 72.1339 153.61 72.5437 154.839 73.1995C157.134 74.429 158.692 76.5602 160.987 77.7898C161.724 78.1176 162.298 77.134 161.642 76.7242C159.183 75.4946 157.544 73.1175 155.085 71.9699C153.855 71.3962 152.544 70.9863 151.232 70.6584C150.167 70.4125 149.101 70.1666 147.954 70.1666C147.134 70.1666 147.134 71.3962 147.954 71.3962Z" fill="#020202"/>
<path d="M107.625 126.971C107.625 126.971 118.281 137.709 140.331 128.119C140.331 128.119 179.02 130.414 203.365 147.054C227.71 163.693 219.759 200.498 219.759 200.498H25C25 200.498 25.2459 158.693 41.9676 143.939C54.9187 132.545 107.625 126.971 107.625 126.971Z" fill="#F5B807"/>
<path d="M63.1976 189.924L61.0664 200.498H65.0009L63.1976 189.924Z" fill="#191919"/>
<path d="M186.479 188.202V200.498H183.201L186.479 188.202Z" fill="#191919"/>
<path d="M146.232 178.94C147.626 178.94 148.937 178.858 150.331 178.694C151.232 178.53 152.052 178.038 152.052 176.973C152.052 176.891 152.052 176.809 152.052 176.727C152.052 176.645 152.052 176.563 152.052 176.481V167.956C152.052 167.218 151.642 166.726 151.15 166.48C150.904 165.989 150.412 165.579 149.675 165.579C148.363 165.579 147.052 165.579 145.74 165.743" fill="white"/>
<path d="M145.74 165.579V165.743C145.74 165.825 145.822 165.907 145.904 165.989C145.986 166.071 146.068 166.071 146.232 166.071L148.363 165.989C148.773 165.989 149.265 165.989 149.675 165.989C149.839 165.989 150.003 166.071 150.167 166.071C150.249 166.071 150.413 166.153 150.495 166.234C150.577 166.234 150.577 166.316 150.659 166.398L150.74 166.48V166.562L150.822 166.644C150.822 166.644 150.822 166.726 150.904 166.726L151.068 166.808C151.15 166.89 151.232 166.89 151.232 166.89C151.314 166.89 151.314 166.972 151.396 167.054C151.478 167.136 151.56 167.3 151.642 167.382C151.724 167.464 151.724 167.546 151.724 167.71C151.724 167.874 151.724 168.202 151.724 168.448V169.267V171.644V171.89C151.724 172.71 151.724 173.448 151.724 174.267C151.724 174.923 151.642 175.579 151.724 176.235C151.724 176.317 151.724 176.481 151.724 176.481V176.645C151.724 176.727 151.724 176.89 151.724 176.89C151.724 177.054 151.724 177.136 151.724 177.3C151.642 177.792 151.232 178.038 150.659 178.202C150.331 178.284 149.839 178.284 149.429 178.366C148.855 178.366 148.281 178.448 147.708 178.53C147.38 178.53 147.134 178.53 146.806 178.53C146.642 178.53 146.478 178.53 146.478 178.612C146.478 178.694 146.478 178.776 146.478 178.858C146.56 179.022 146.642 179.186 146.642 179.35C146.642 179.432 146.642 179.432 146.888 179.432H147.052C147.462 179.432 147.954 179.35 148.363 179.35C148.527 179.35 148.691 179.35 148.855 179.268C148.937 179.268 149.101 179.268 149.183 179.186C149.429 179.186 149.757 179.186 150.003 179.104H150.085C150.167 179.104 150.331 179.104 150.413 179.022C150.577 179.022 150.74 178.94 150.822 178.94C151.232 178.858 151.724 178.612 152.052 178.284C152.216 178.038 152.462 177.792 152.544 177.464C152.626 177.3 152.626 177.136 152.626 176.972C152.626 176.89 152.626 176.809 152.626 176.727V176.645V176.563C152.708 176.317 152.708 176.071 152.626 175.825C152.626 175.579 152.544 175.415 152.626 175.169C152.626 175.087 152.626 174.923 152.626 174.841C152.626 174.677 152.626 174.595 152.626 174.431C152.626 174.104 152.626 173.776 152.626 173.366C152.626 173.284 152.626 173.284 152.626 173.284C152.708 173.12 152.626 172.956 152.626 172.874C152.626 172.71 152.626 172.546 152.626 172.464C152.626 172.3 152.708 172.218 152.626 172.054C152.626 171.726 152.544 171.317 152.626 170.989C152.626 170.743 152.626 170.579 152.626 170.333C152.626 170.251 152.626 170.169 152.626 170.169C152.626 170.087 152.626 170.005 152.626 170.005V168.366C152.626 168.12 152.626 167.71 152.544 167.382C152.462 167.054 152.216 166.726 151.97 166.48C151.888 166.398 151.888 166.398 151.806 166.398C151.724 166.398 151.56 166.316 151.642 166.316C151.642 166.316 151.642 166.316 151.56 166.234C151.396 165.989 151.232 165.825 150.986 165.661C150.659 165.415 150.249 165.251 149.921 165.251C149.511 165.251 149.101 165.251 148.691 165.251H147.298L146.15 165.333C145.904 165.333 145.822 165.333 145.822 165.497C145.658 165.415 145.658 165.497 145.74 165.579Z" fill="#020202"/>
<path d="M145.823 165.661C145.823 165.251 145.741 164.923 145.741 164.513C145.741 164.431 145.741 164.267 145.659 164.185C145.659 163.366 145.167 162.546 144.183 162.546C129.921 162.546 115.74 163.448 101.477 162.546C101.15 162.546 100.822 162.628 100.576 162.792C99.0184 162.792 97.379 162.874 95.8216 163.038C94.8379 163.12 94.3461 164.103 94.3461 164.923C94.3461 165.087 94.2642 165.251 94.2642 165.415C94.2642 169.841 94.756 176.972 95.3298 181.317C95.4937 182.382 96.2314 182.71 96.8872 182.546C96.9691 182.546 97.1331 182.628 97.215 182.628C112.953 183.53 128.691 182.628 144.429 182.382C144.921 182.382 145.331 182.137 145.577 181.809C145.905 181.563 146.151 181.071 146.151 180.497C146.151 180.005 146.151 179.514 146.151 179.022L145.823 165.661Z" fill="white"/>
<path d="M145.823 165.743C145.741 165.743 145.659 165.743 145.659 165.743C145.577 165.661 145.495 166.235 145.413 166.808C145.413 167.136 145.331 167.628 145.413 168.612L145.659 175.005L145.823 178.202C145.823 178.776 145.823 179.268 145.905 179.841C145.905 180.087 145.905 180.415 145.905 180.579C145.905 180.825 145.823 180.989 145.741 181.153C145.659 181.235 145.659 181.317 145.495 181.399C145.413 181.481 145.413 181.481 145.413 181.563L145.331 181.645L145.249 181.727C145.085 181.891 144.921 181.891 144.593 181.891H142.626C141.314 181.891 140.003 181.973 138.773 181.973C137.38 181.973 135.986 182.055 134.757 182.055C132.626 182.137 130.494 182.218 128.281 182.218C125.904 182.3 123.445 182.3 121.068 182.382C120.248 182.382 119.428 182.382 118.609 182.464C115.412 182.464 112.133 182.464 108.936 182.464C106.559 182.464 104.182 182.382 101.887 182.3C100.74 182.3 99.51 182.219 98.3624 182.137C98.0345 182.137 97.7886 182.137 97.4608 182.055H97.2149C97.1329 182.055 97.0509 182.055 97.0509 182.055C96.9689 182.055 96.9689 182.055 96.9689 182.055C96.887 182.055 96.723 182.055 96.6411 182.055C96.2312 181.973 96.0673 181.645 95.9853 181.071C95.9033 180.579 95.9033 180.087 95.8214 179.677C95.2476 175.087 95.0017 170.415 94.9197 165.825C94.9197 165.661 94.9197 165.497 94.9197 165.333V165.169V165.087V164.923V164.841C94.9197 164.513 95.0017 164.267 95.1656 164.021C95.3296 163.775 95.4935 163.611 95.7394 163.53C95.8214 163.448 95.9853 163.448 96.0673 163.448H96.5591C98.0345 163.366 99.428 163.366 100.903 163.284L101.067 163.202H101.149C101.149 163.202 101.231 163.202 101.231 163.12C101.313 163.12 101.395 163.12 101.477 163.12L102.297 163.202C102.871 163.202 103.363 163.284 103.936 163.284C106.231 163.366 108.609 163.448 110.822 163.53C114.756 163.611 118.609 163.611 122.461 163.53C125.084 163.448 127.789 163.448 130.412 163.366C133.855 163.284 137.38 163.202 140.822 163.12H143.445H144.101C144.347 163.12 144.429 163.12 144.593 163.202C144.839 163.284 145.085 163.53 145.167 163.857C145.331 164.841 145.331 165.497 145.495 165.661C145.577 165.825 145.659 165.907 145.741 165.661C145.905 165.251 145.987 164.923 146.15 164.595C146.232 164.513 146.232 164.431 146.15 164.267C146.15 164.267 146.15 164.185 146.15 164.103C146.15 164.021 146.15 163.939 146.068 163.775C145.987 163.53 145.905 163.202 145.577 162.792C145.413 162.546 145.085 162.3 144.757 162.218C144.511 162.136 144.347 162.136 144.101 162.136H143.609H142.626H140.659C139.347 162.136 138.117 162.218 136.806 162.218C135.822 162.218 134.675 162.218 133.773 162.3C133.035 162.382 132.38 162.382 131.642 162.382C130.084 162.382 128.445 162.382 127.052 162.546C126.97 162.546 126.642 162.546 126.56 162.546C125.904 162.546 125.33 162.546 124.675 162.628C123.855 162.628 123.035 162.71 122.133 162.71C119.674 162.71 117.297 162.71 114.838 162.71C111.723 162.71 108.691 162.546 105.494 162.464C105.33 162.464 105.084 162.464 105.002 162.464C104.346 162.382 103.69 162.382 102.953 162.3L101.887 162.218H101.395C101.231 162.218 100.985 162.218 100.74 162.3C100.658 162.3 100.494 162.382 100.412 162.382C100.33 162.382 100.33 162.464 100.248 162.464C99.7559 162.464 99.1821 162.546 98.6903 162.546C98.1165 162.546 97.6247 162.628 96.9689 162.628C96.723 162.628 96.3952 162.628 96.0673 162.628C95.9033 162.628 95.7394 162.628 95.5755 162.628C95.4115 162.628 95.2476 162.71 95.0837 162.71C93.9361 163.12 93.6082 164.349 93.6082 165.169C93.5262 165.497 93.6082 165.743 93.6082 165.989V166.726V168.284C93.6082 169.267 93.6902 170.333 93.7722 171.317C93.7722 171.562 93.7722 171.808 93.7722 171.972C93.7722 172.792 93.8541 173.94 93.9361 174.513C94.0181 175.415 94.1 176.317 94.182 177.054C94.264 178.038 94.264 178.612 94.3459 179.432L94.5918 181.071C94.6738 181.563 94.7558 182.382 95.4115 182.792C95.7394 182.956 96.0673 183.038 96.4771 183.038C96.5591 183.038 96.723 183.038 96.6411 183.038H96.723C96.887 183.038 97.0509 183.038 97.1329 183.12C97.7067 183.12 98.1985 183.202 98.7723 183.202C100.002 183.284 101.231 183.366 102.543 183.366C102.953 183.366 103.363 183.366 103.772 183.448C104.1 183.448 104.592 183.448 105.002 183.53C108.199 183.612 111.396 183.612 114.51 183.612C117.953 183.53 121.396 183.53 124.838 183.448C125.084 183.448 125.576 183.448 125.658 183.448C126.068 183.366 126.642 183.366 127.216 183.366C127.707 183.366 128.281 183.366 128.855 183.366C130.084 183.366 131.232 183.284 132.462 183.284C134.265 183.284 136.068 183.202 137.872 183.202L141.314 183.12H143.036H143.855H144.265C144.429 183.12 144.675 183.12 144.839 183.038C145.085 182.956 145.249 182.874 145.413 182.71C145.495 182.628 145.577 182.546 145.659 182.464L145.741 182.382L145.823 182.3C146.15 181.973 146.396 181.563 146.478 181.153C146.56 180.661 146.478 180.415 146.478 180.005V179.022L146.314 174.923C146.232 172.71 146.15 170.497 146.068 168.202C145.987 166.644 145.987 166.398 145.905 166.071C146.068 165.497 145.905 165.661 145.823 165.743Z" fill="#020202"/>
<path d="M105.904 165.333C103.854 165.415 101.805 165.497 99.674 165.579C99.0182 165.087 98.0346 165.825 98.0346 167.874C97.9526 171.153 98.0346 174.431 98.1985 177.792C98.1985 177.956 98.1985 178.038 98.1985 178.202C98.1985 179.514 98.5264 180.743 99.3461 180.661C101.477 180.497 103.69 180.333 105.822 180.415C106.232 180.415 106.477 180.087 106.641 179.595C107.051 179.268 107.379 178.53 107.379 177.3C107.379 173.858 107.133 170.497 106.969 167.136C106.969 166.071 106.395 165.251 105.904 165.333Z" fill="#F24840"/>
<path d="M185.301 138.968C185.301 138.886 185.383 138.886 185.383 138.804C185.465 138.722 185.137 138.558 184.809 138.312C184.645 138.23 184.399 138.067 183.826 137.903C181.366 137.083 178.989 136.263 176.53 135.525C175.054 135.115 173.579 134.624 172.103 134.214C171.284 133.968 170.464 133.722 169.808 133.558C168.578 133.23 167.349 132.902 166.037 132.574C164.644 132.246 163.25 131.836 161.856 131.591C161.365 131.509 160.873 131.345 160.381 131.263C158.496 130.853 156.61 130.361 154.643 130.033L146.281 128.558C146.036 128.476 145.708 128.476 145.462 128.394C144.068 128.23 142.757 127.82 141.199 127.902C140.461 127.984 139.642 128.312 139.068 128.803L138.248 129.377L137.346 129.869C135.379 130.935 133.166 131.591 130.87 132.082C129.559 132.328 128.165 132.492 126.854 132.574C124.558 132.738 122.263 132.82 119.968 132.656C118.41 132.574 116.935 132.246 115.459 131.673C113.492 130.935 111.606 130.197 109.803 129.213C108.901 128.721 108 128.23 107.18 127.574C106.606 127.164 106.36 127 106.196 127C106.032 127 105.95 127.082 106.032 127.246C106.114 127.492 106.196 127.738 106.196 127.984C106.196 128.148 106.196 128.148 106.934 128.639L107.262 128.885C108.573 129.787 109.967 130.443 111.36 131.099C111.934 131.345 112.508 131.591 113.082 131.755C113.492 131.918 113.902 132.082 114.312 132.164C115.213 132.492 116.115 132.902 117.017 132.984C117.099 132.984 117.263 133.066 117.345 133.066C117.754 133.148 118.082 133.23 118.492 133.23C118.984 133.312 119.476 133.312 119.968 133.394C121.443 133.476 122.919 133.476 124.394 133.476C126.28 133.394 128.083 133.394 129.969 133.066C130.051 133.066 130.215 133.066 130.296 133.066C131.116 132.984 131.936 132.82 132.756 132.574C133.493 132.328 134.231 132.082 134.969 131.918C135.215 131.836 135.707 131.673 135.953 131.509C136.445 131.263 136.936 131.099 137.346 130.853C137.92 130.607 138.412 130.279 138.986 129.951L139.724 129.459C139.969 129.295 140.133 129.131 140.379 129.049C140.461 128.967 140.625 128.967 140.707 128.967C141.117 128.885 141.773 128.803 142.101 128.885C142.593 128.885 143.166 128.967 143.576 129.049C144.15 129.131 144.478 129.295 144.97 129.377C146.281 129.541 147.511 129.787 148.823 130.033C149.56 130.197 150.298 130.361 151.036 130.443C151.282 130.443 151.528 130.525 151.692 130.607C151.938 130.689 152.184 130.689 152.429 130.771C154.315 131.099 156.2 131.427 158.004 131.836C159.971 132.246 162.02 132.738 163.988 133.23C164.152 133.312 164.398 133.312 164.48 133.312C164.726 133.312 165.053 133.394 165.381 133.476C165.709 133.558 166.037 133.64 166.283 133.722C167.021 133.886 167.677 134.05 168.332 134.296C169.316 134.624 170.382 134.87 171.447 135.197C172.759 135.607 174.071 135.935 175.382 136.345C176.94 136.837 178.497 137.329 180.055 137.821C181.284 138.23 182.596 138.64 183.826 139.05C184.645 139.378 184.891 139.378 185.055 139.378C185.301 139.214 185.301 139.05 185.301 138.968Z" fill="#0A0A0A"/>
</g>
<defs>
<clipPath id="clip0">
<rect width="269" height="207" fill="white"/>
</clipPath>
</defs>
</svg>
