<svg width="269" height="207" viewBox="0 0 269 207" fill="none" xmlns="http://www.w3.org/2000/svg">
<g clip-path="url(#clip0)">
<path d="M128.64 12.9336C128.64 12.9336 147.287 14.8617 158.643 45.4415C163.231 57.7944 170.867 81.3317 165.058 98.6927C162.411 106.609 147.345 110.662 142.126 109.248C142.126 109.248 140.192 118.235 144.92 121.454C145.6 121.92 141.839 129.722 142.822 129.902C150.646 131.315 135.948 137.393 135.948 137.393L99.9321 126.013L98.9079 118.047C98.9079 118.047 98.6294 94.9182 96.0158 85.0245C93.4105 75.1308 88.1916 45.4497 90.7969 38.3827C93.4023 31.3158 110.362 17.1819 118.194 15.7685C126.027 14.347 128.64 12.9336 128.64 12.9336Z" fill="#FFA9A0"/>
<path d="M134.654 61.7893C134.654 61.7893 128.722 63.9543 119.833 62.2468C111.058 60.5556 119.702 55.1308 128.329 55.2289C133.908 55.286 141.954 58.0965 134.654 61.7893Z" fill="white"/>
<path d="M125.797 56.2659C122.848 60.1139 126.125 62.6384 127.542 62.9162C128.206 63.0469 130.639 62.8263 131.647 61.7643C133.712 59.5829 132.417 56.5601 131.147 55.7267C130.549 55.3346 129.902 55.114 128.354 55.163C126.805 55.2039 126.215 55.7186 125.797 56.2659Z" fill="black"/>
<path d="M163.55 60.5475C161.109 61.054 156.545 61.6096 150.704 60.4821C141.929 58.791 150.573 53.3662 159.2 53.4642C159.896 53.4724 160.634 53.5214 161.371 53.6113" fill="white"/>
<path d="M152.818 54.5101C149.868 58.3581 153.145 60.8826 154.563 61.1604C155.226 61.2911 157.66 61.0705 158.667 60.0084C160.732 57.827 159.437 54.8042 158.168 53.9709C157.569 53.5787 156.922 53.3581 155.374 53.4072C153.817 53.448 153.235 53.9627 152.818 54.5101Z" fill="black"/>
<path d="M97.6299 28.8563C97.6299 28.8563 103.635 34.4772 111.386 39.4199C112.107 39.8774 112.836 40.335 113.59 40.7761C121.529 45.482 129.836 46.2336 137.284 45.1552C150.073 43.3006 151.843 35.384 151.843 35.384C151.843 35.384 152.228 38.415 162.428 37.1405C173.808 35.719 182.894 5.99699 154.489 0.204549C147.681 -1.18433 140.553 5.16366 128.911 7.23881C118.481 9.10154 112.484 8.62769 106.863 10.76C80.0396 20.907 97.6299 28.8563 97.6299 28.8563Z" fill="#382B2A"/>
<path d="M120.087 41.5278C120.087 41.5278 110.386 37.1324 106.855 41.5278C103.324 45.9232 110.386 57.361 110.386 60.8741C110.386 64.3871 104.373 47.9902 98.9244 55.5963C90.1088 67.9083 107.846 70.1877 107.74 71.4295C107.633 72.6714 97.0646 90.163 97.1547 90.7758C97.253 91.3885 72.4612 54.714 79.5153 33.6112C86.5694 12.5084 103.799 29.7305 103.799 29.7305L120.087 41.5278Z" fill="#382B2A"/>
<path d="M139.422 82.3688L139.455 82.7364C139.463 82.9243 139.627 83.0796 139.799 83.2184C139.906 83.3001 140.045 83.3818 140.299 83.341C141.438 83.1613 142.568 82.8835 143.658 82.5077C144.313 82.2871 144.961 82.0175 145.608 81.7642C145.96 81.6253 146.28 81.4701 146.607 81.2413C146.886 81.0371 147.238 80.7757 147.492 80.3345C147.754 79.8851 147.787 79.3704 147.738 78.9946C147.681 78.5698 147.574 78.2267 147.5 77.9407C147.419 77.6466 147.337 77.3525 147.238 77.0584C147.173 76.8623 147.083 76.6744 147.033 76.462L146.46 74.06L145.608 70.5552C145.583 70.4326 145.567 70.3101 145.542 70.1957C145.239 69.0519 145.059 67.8836 144.821 66.7317C144.625 65.7594 144.567 64.7709 144.346 63.7987C144.215 63.2268 144.174 62.6385 144.051 62.0748C143.838 61.1108 143.756 60.1304 143.584 59.1582C143.47 58.4964 143.388 57.8265 143.347 57.1566C143.281 56.2742 143.068 55.4082 142.921 54.5422C142.847 54.1092 142.789 53.668 142.806 53.2187C142.814 52.9246 142.757 52.7693 142.585 52.7448C142.404 52.7121 142.216 52.7203 142.044 52.7939C141.724 52.9164 141.413 53.0389 141.094 53.1452C140.881 53.2187 140.881 53.2023 140.922 53.57L140.946 53.7579C141.003 54.4197 141.192 55.0569 141.233 55.7268C141.249 55.9883 141.298 56.2579 141.405 56.4866C141.487 56.6582 141.495 56.8379 141.52 57.0177C141.577 57.4098 141.536 57.8428 141.757 58.186C141.774 58.2105 141.782 58.284 141.774 58.3167C141.724 58.4964 141.815 58.6435 141.864 58.7905C141.921 58.9948 141.987 59.1909 142.003 59.4196C142.06 60.0405 142.126 60.6614 142.265 61.266C142.445 62.0503 142.347 62.8591 142.593 63.6353C142.601 63.6761 142.601 63.7333 142.593 63.766C142.495 64.1173 142.617 64.4931 142.716 64.8281C142.814 65.1549 142.937 65.4408 142.888 65.7921C142.871 65.9147 142.904 66.1271 142.962 66.2415C143.068 66.462 143.06 66.6663 143.093 66.8869C143.175 67.4016 143.232 67.9326 143.453 68.4065C143.486 68.4637 143.486 68.5209 143.47 68.578C143.396 68.7986 143.519 69.0764 143.584 69.2235C143.683 69.4441 143.691 69.6646 143.773 69.8607C143.871 70.0976 143.756 70.2692 143.83 70.4816C144.002 71.0127 144.158 71.5519 144.256 72.1074C144.313 72.4261 144.346 72.7447 144.485 73.0388C144.526 73.1287 144.535 73.2512 144.518 73.3492C144.502 73.4473 144.526 73.5535 144.551 73.6597C144.748 74.4522 144.928 75.2447 145.149 76.029C145.378 76.8786 145.657 77.712 145.837 78.578C145.854 78.6515 145.862 78.7495 145.903 78.774C146.034 78.8394 146.026 78.9619 146.009 79.0682C145.993 79.1662 146.018 79.2397 146.001 79.2969C145.96 79.4113 146.05 79.4276 145.919 79.5012C145.755 79.5665 145.346 79.7626 144.944 79.9587C144.444 80.1956 143.92 80.3998 143.396 80.5714C142.773 80.7757 142.142 80.9717 141.503 81.1106C140.971 81.225 140.454 81.3639 139.914 81.4374C139.553 81.4864 139.48 81.5109 139.414 81.7315C139.316 81.9439 139.381 82.1564 139.422 82.3688Z" fill="#020202"/>
<path d="M125.822 50.8167C121.725 49.6647 117.064 50.784 113.95 53.6843" stroke="#020202" stroke-width="2" stroke-miterlimit="10" stroke-linecap="round" stroke-linejoin="round"/>
<path d="M158.839 45.9971C155.947 46.1605 153.096 47.3124 150.974 49.2895" stroke="#020202" stroke-width="2" stroke-miterlimit="10" stroke-linecap="round" stroke-linejoin="round"/>
<path d="M141.364 91.1928C133.638 91.7402 132.425 90.4249 128.435 88.3661C128.19 88.2435 127.928 88.1046 127.657 88.1537C127.362 88.2108 127.149 88.4641 127.018 88.7255C126.551 89.6242 126.674 90.719 126.994 91.6749C127.723 93.8562 129.468 95.6699 131.614 96.4869C133.761 97.3039 135.252 97.5735 137.382 97.3039C138.767 97.1323 141.241 95.3023 142.077 92.9003C142.314 92.2222 142.88 91.0866 141.364 91.1928Z" fill="white"/>
<path d="M142.134 109.247C142.134 109.247 128.902 109.247 117.44 103.97C117.44 103.97 121.848 119.321 131.106 119.999C140.372 120.677 142.134 117.426 142.134 117.426C142.134 117.426 141.249 111.886 142.134 109.247Z" fill="black"/>
<path d="M101.751 58.055C101.751 59.1089 102.03 60.2036 102.365 61.1922C103.168 63.5614 104.635 65.6448 106.527 67.2706C106.773 66.9519 107.027 66.6252 107.273 66.3065C106.88 66.0614 106.388 65.9389 105.938 65.8735C104.684 65.6774 103.414 65.8735 102.21 66.2493C101.456 66.4863 101.776 67.6627 102.537 67.434C103.545 67.1235 104.635 66.9029 105.7 67.0745C105.979 67.1153 106.249 67.197 106.511 67.2951C106.634 67.3441 106.405 67.2461 106.511 67.2951C106.536 67.3032 106.56 67.3196 106.585 67.3359C106.609 67.3523 106.634 67.3604 106.659 67.3768C107.24 67.7363 107.937 66.8702 107.404 66.4127C105.643 64.9013 104.258 62.9896 103.529 60.7837C103.308 60.1219 103.136 59.4357 103.045 58.7412C103.062 58.8719 103.029 58.5697 103.021 58.5206C103.013 58.4389 103.004 58.3572 103.004 58.2755C103.004 58.2102 102.996 58.1367 102.996 58.0713C102.98 57.2706 101.751 57.2706 101.751 58.055Z" fill="#020202"/>
<path d="M208.521 169.247C209.611 163.038 207.342 156.347 202.696 152.066C198.813 148.496 189.178 145.375 189.178 145.375C177.298 141.339 165.418 137.303 153.547 133.259C150.237 132.132 146.534 130.637 145.354 127.352C144.731 125.628 144.961 123.741 145.116 121.919C145.272 120.097 145.329 118.161 144.444 116.56C143.551 114.959 141.495 114.166 139.815 114.901C131.491 118.529 114.049 120.571 103.463 116.339L101.407 115.228C99.0637 114.019 95.762 115.776 95.4506 118.39C95.254 120.089 96.1224 121.748 96.1061 123.463C96.0897 125.669 94.5658 127.646 92.6896 128.823C90.8134 129.999 88.6177 130.53 86.4712 131.053C70.88 134.885 55.5428 139.746 40.5989 145.596C40.5989 145.596 30.5461 149.395 27.2034 153.316C23.8607 157.238 23.5903 161.143 24.3441 167.695L26.0564 200.448L206.678 198.814L208.521 169.247Z" fill="#2E93FB"/>
<path d="M60.3766 157.123C59.4754 160.187 59.1313 163.39 59.3689 166.568C59.4262 167.352 60.6552 167.352 60.5978 166.568C60.3684 163.488 60.688 160.408 61.5646 157.45C61.7858 156.699 60.5978 156.372 60.3766 157.123Z" fill="#236591"/>
<path d="M80.6542 181.992C80.9573 184.893 80.4739 187.826 79.204 190.456C78.8599 191.167 79.925 191.788 80.2691 191.077C81.6292 188.259 82.2109 185.113 81.8831 182.001C81.8094 181.216 80.5723 181.208 80.6542 181.992Z" fill="#236591"/>
<path d="M114.368 173.561C113.066 176.673 112.295 179.974 112.074 183.34C112.025 184.124 113.254 184.124 113.303 183.34C113.516 180.088 114.286 176.894 115.548 173.888C115.679 173.577 115.409 173.218 115.122 173.136C114.77 173.038 114.499 173.258 114.368 173.561Z" fill="#236591"/>
<path d="M38.2138 175.448C39.5165 178.561 40.2866 181.862 40.5078 185.228C40.557 186.012 39.3281 186.012 39.2789 185.228C39.0659 181.976 38.2957 178.782 37.034 175.775C36.9029 175.465 37.1733 175.105 37.4601 175.024C37.8124 174.926 38.0827 175.146 38.2138 175.448Z" fill="#236591"/>
<path d="M98.1543 133.398C97.7856 135.383 97.589 137.401 97.5972 139.419C97.5972 140.211 98.8261 140.211 98.8261 139.419C98.8179 137.507 98.99 135.603 99.3341 133.724C99.3914 133.398 99.244 133.063 98.908 132.973C98.6131 132.891 98.2198 133.071 98.1543 133.398Z" fill="#236591"/>
<path d="M201.549 167.646C202.024 169.599 201.607 171.666 200.451 173.299C200.263 173.569 200.402 173.978 200.673 174.141C200.976 174.321 201.32 174.19 201.517 173.92C202.86 172.025 203.294 169.574 202.737 167.319C202.541 166.559 201.361 166.878 201.549 167.646Z" fill="#236591"/>
<path d="M108.92 131.454L108.887 131.633C108.863 131.723 108.977 131.821 109.092 131.919C109.166 131.977 109.264 132.034 109.477 132.058L112.304 132.369C112.869 132.426 113.451 132.459 114.008 132.524C114.311 132.557 114.63 132.581 114.893 132.589C115.368 132.597 115.843 132.646 116.318 132.655C116.851 132.671 117.383 132.712 117.916 132.72C118.096 132.72 118.276 132.712 118.465 132.728C119.177 132.785 119.898 132.785 120.611 132.802C121.66 132.826 122.709 132.81 123.749 132.769H124.069C125.101 132.736 126.125 132.663 127.149 132.614C128.009 132.54 128.87 132.516 129.738 132.401C130.246 132.336 130.754 132.262 131.254 132.197C132.106 132.05 132.958 131.936 133.802 131.756C134.375 131.633 134.949 131.519 135.531 131.396C136.293 131.241 137.03 130.988 137.759 130.735C138.128 130.612 138.496 130.481 138.873 130.375C139.127 130.302 139.25 130.228 139.258 130.13C139.267 130.032 139.234 129.942 139.16 129.877C139.021 129.754 138.89 129.632 138.775 129.501C138.693 129.411 138.709 129.411 138.423 129.517L138.275 129.566C137.751 129.746 137.243 129.967 136.686 130.097C136.473 130.146 136.252 130.22 136.071 130.31C135.932 130.375 135.785 130.4 135.629 130.441C135.301 130.522 134.941 130.563 134.654 130.71C134.638 130.718 134.572 130.735 134.547 130.735C134.392 130.727 134.277 130.792 134.146 130.825C133.974 130.874 133.802 130.931 133.613 130.955C133.089 131.045 132.565 131.11 132.049 131.225C131.377 131.38 130.705 131.331 130.025 131.478C129.992 131.486 129.943 131.486 129.918 131.486C129.632 131.454 129.304 131.511 129.009 131.56C128.73 131.609 128.476 131.666 128.182 131.642C128.075 131.633 127.903 131.642 127.796 131.674C127.6 131.723 127.428 131.723 127.239 131.731C126.797 131.748 126.346 131.748 125.912 131.838C125.855 131.846 125.814 131.846 125.773 131.838C125.593 131.789 125.347 131.838 125.216 131.862C125.019 131.895 124.831 131.895 124.659 131.911C124.446 131.936 124.323 131.87 124.134 131.887C123.659 131.927 123.184 131.952 122.7 131.952C122.43 131.944 122.16 131.944 121.881 131.968C121.791 131.976 121.701 131.968 121.619 131.944C121.537 131.919 121.447 131.919 121.357 131.919L119.276 131.895C118.522 131.87 117.776 131.854 117.031 131.789C116.965 131.78 116.875 131.772 116.842 131.789C116.744 131.838 116.629 131.813 116.507 131.797C116.392 131.78 116.269 131.78 116.154 131.764C115.892 131.74 115.622 131.756 115.368 131.707C114.983 131.633 114.589 131.601 114.196 131.568L112.697 131.437L110.927 131.225C110.444 131.176 109.952 131.119 109.469 131.07C109.141 131.029 109.067 131.029 108.977 131.135C108.904 131.233 108.928 131.339 108.92 131.454Z" fill="#0A0A0A"/>
<path d="M59.9016 186.273L59.0823 200.162H66.6362L59.9016 186.273Z" fill="#191919"/>
<path d="M197.065 200L197.065 146.922L134.241 159.691L152.955 206.76L197.065 200Z" fill="#7C251F"/>
<path d="M167.626 149.825C169.217 135.395 178.205 122.353 191.154 115.711C192.952 114.792 191.251 112.163 189.462 113.076C175.875 120.042 166.237 134.009 164.563 149.162C164.347 151.149 167.406 151.826 167.626 149.825Z" fill="#0BBC9F"/>
<path d="M156.307 111.69C157.021 124.013 155.503 136.437 151.82 148.24C151.224 150.151 154.131 151.34 154.729 149.406C158.581 137.065 160.171 124.168 159.417 111.272C159.307 109.254 156.192 109.686 156.307 111.69Z" fill="#0BBC9F"/>
<path d="M167.879 125.97C176.675 115.148 187.955 106.353 200.603 100.462C203.266 99.2234 206.057 98.0882 208.989 97.9664C212.388 97.8172 215.688 99.0224 218.828 100.329C230.708 105.289 242.246 112.118 255.095 112.97C248.815 118.492 240.312 121.423 231.975 120.935C224.476 120.492 216.12 117.648 210.014 122.028C208.362 123.213 207.076 124.833 205.637 126.291C201.124 130.827 194.853 133.689 188.459 133.689C182.043 133.692 167.576 128.211 177.596 121.54C185.572 116.219 195.89 114.02 205.337 115.134" fill="#0BBC9F"/>
<path d="M168.752 126.75C177.533 116 188.729 107.171 201.37 101.384C204.348 100.018 207.517 98.8506 210.849 99.1784C213.863 99.4752 216.707 100.688 219.467 101.867C224.967 104.214 230.328 106.886 235.861 109.149C242.054 111.684 248.437 113.662 255.144 114.13C254.834 113.473 254.529 112.825 254.22 112.168C247.054 118.383 237.812 120.573 228.557 119.41C224.566 118.909 220.503 118.121 216.472 118.526C214.568 118.719 212.703 119.185 210.985 120.054C208.9 121.107 207.323 122.777 205.743 124.462C200.24 130.341 192.187 133.839 184.156 131.889C181.23 131.188 172.418 128.216 176.429 123.965C177.917 122.389 180.04 121.298 181.949 120.32C184.31 119.114 186.813 118.189 189.358 117.484C194.463 116.078 199.837 115.653 205.094 116.246C206.584 116.417 207.102 114.125 205.597 113.951C195.755 112.842 185.26 114.919 176.965 120.519C174.754 122.014 172.299 124.409 173.167 127.349C173.913 129.885 176.543 131.482 178.79 132.52C185.799 135.746 193.53 135.407 200.351 131.696C202.552 130.493 204.581 128.967 206.36 127.204C208.233 125.356 209.83 123.214 212.245 122.035C216.246 120.073 221.063 120.775 225.296 121.343C230.641 122.053 235.793 122.502 241.123 121.312C246.637 120.077 251.712 117.425 255.972 113.734C256.833 112.983 255.92 111.833 255.048 111.773C242.533 110.88 231.444 104.383 220.147 99.5946C217.329 98.4028 214.421 97.2066 211.356 96.8685C208.166 96.511 205.106 97.2479 202.175 98.4736C195.77 101.148 189.678 104.775 184.109 108.886C177.754 113.575 172.006 119.053 167.012 125.163C166.047 126.353 167.791 127.925 168.752 126.75Z" fill="white"/>
<path d="M162.833 122.64C167.839 121.848 171.38 117.028 172.503 112.09C173.617 107.157 172.857 102.019 172.468 96.9843C172.074 91.941 172.109 86.5988 174.603 82.1888C176.536 78.7675 179.735 76.283 182.855 73.8885C187.938 69.9847 193.027 66.0896 198.11 62.1858C191.279 60.2806 183.83 61.7107 177.425 64.8023C171.024 67.8794 165.493 72.5081 160.186 77.2263C155.19 81.6746 150.257 86.3314 146.717 92.0031C143.178 97.6748 141.137 104.555 142.429 111.095C144.182 119.987 151.468 126.556 158.349 132.441" fill="#0BBC9F"/>
<path d="M162.923 124.21C167.533 123.369 171.017 120.067 172.893 115.844C174.867 111.391 174.821 106.417 174.444 101.663C174.066 96.9472 173.362 92.1361 174.339 87.4328C175.435 82.173 179.091 78.7696 183.187 75.6117C188.435 71.56 193.715 67.5371 198.984 63.4969C200.09 62.6465 199.77 61.0159 198.425 60.6586C182.928 56.4914 169.113 67.1462 158.296 76.8436C152.576 81.9622 146.952 87.5065 143.562 94.4961C140.66 100.483 139.507 107.374 141.497 113.811C144.072 122.104 150.938 128.176 157.324 133.639C158.853 134.952 160.921 132.582 159.377 131.266C154.072 126.726 148.35 121.861 145.431 115.352C142.793 109.472 143.253 102.994 145.786 97.1525C148.566 90.7199 153.448 85.533 158.535 80.8238C164.112 75.662 169.962 70.494 176.715 66.9065C183.132 63.4934 190.677 61.811 197.806 63.7303C197.619 62.7891 197.434 61.8333 197.247 60.892C192.646 64.4243 188.045 67.9566 183.438 71.4802C179.453 74.5393 175.119 77.6048 172.825 82.2202C168.491 90.9437 172.508 100.533 171.348 109.66C170.745 114.453 168.03 120.115 162.756 121.073C160.769 121.432 160.936 124.569 162.923 124.21Z" fill="white"/>
<path d="M155.891 149.256C148.35 137.619 132.615 132.609 119.66 137.364C117.767 138.058 119.069 140.912 120.951 140.216C132.681 135.91 146.712 140.816 153.454 151.226C154.551 152.915 156.979 150.933 155.891 149.256Z" fill="#0BBC9F"/>
<path d="M128.616 144.805C128.259 150.588 124.929 156.261 120.423 160.121C114.518 165.179 106.908 167.726 99.4609 169.992C92.0141 172.257 84.3626 174.419 77.9978 178.906C74.0374 181.697 70.4525 185.441 65.7034 186.404C69.0779 179.484 72.4524 172.564 75.8164 165.644C79.2849 158.52 82.8122 151.321 87.9087 145.25C93.0051 139.179 99.9232 134.255 107.777 133.149C115.642 132.042 124.385 135.435 128.109 142.417" fill="#0BBC9F"/>
<path d="M195.312 113.759C197.43 110.898 201.159 109.52 204.359 108.246C207.725 106.903 211.19 105.868 214.737 105.116C216.222 104.794 215.509 102.561 214.042 102.871C210.238 103.689 206.516 104.827 202.924 106.303C199.58 107.681 195.799 109.192 193.568 112.187C192.667 113.399 194.402 114.976 195.312 113.759Z" fill="white"/>
<path d="M180.179 122.598C184.17 124.996 188.469 126.849 192.947 128.128C193.559 128.305 194.218 127.82 194.348 127.228C194.49 126.579 194.063 126.01 193.451 125.832C189.166 124.603 185.069 122.794 181.244 120.499C180.696 120.169 179.939 120.482 179.662 121.019C179.364 121.62 179.636 122.276 180.179 122.598Z" fill="white"/>
<path d="M165.457 88.375C165.658 87.9401 165.867 87.4995 166.068 87.0646C166.614 85.8847 164.986 84.7253 164.117 85.7811C159.052 91.9562 155.702 99.4962 154.672 107.421C153.551 116.059 155.24 124.667 156.927 133.1C157.224 134.583 159.458 133.821 159.164 132.361C157.566 124.345 155.92 116.085 156.986 107.873C157.966 100.345 161.072 93.1932 165.896 87.3169C165.244 86.8862 164.598 86.4641 163.946 86.0334C163.745 86.4682 163.536 86.9089 163.335 87.3437C162.704 88.7178 164.817 89.7549 165.457 88.375Z" fill="white"/>
<path d="M148.898 100.271C148.648 105.518 150.135 110.635 151.832 115.537C152.329 116.962 154.566 116.223 154.069 114.798C152.427 110.072 151.003 105.201 151.247 100.134C151.277 99.4997 150.587 98.9937 150.007 99.0292C149.32 99.0737 148.927 99.6363 148.898 100.271Z" fill="white"/>
<path d="M166.986 93.2135C163.513 93.9861 160.347 95.7839 157.838 98.2847C157.385 98.7373 157.501 99.5513 157.95 99.9417C158.457 100.381 159.159 100.264 159.609 99.8264C161.833 97.6157 164.665 96.1283 167.72 95.4461C168.344 95.3062 168.652 94.5235 168.464 93.9588C168.25 93.2986 167.61 93.0735 166.986 93.2135Z" fill="white"/>
<path d="M125.161 137.431C117.092 135.466 111.813 143.03 107.138 148.159C102.077 153.716 94.7029 156.365 89.664 161.941C88.644 163.061 90.3942 164.641 91.4137 163.51C96.0368 158.394 102.757 155.864 107.647 151.038C112.198 146.542 116.968 137.866 124.655 139.736C126.13 140.087 126.627 137.792 125.161 137.431Z" fill="white"/>
<path d="M112.695 143.862C111.789 148.916 110.418 153.88 108.576 158.671C108.345 159.258 108.476 159.94 109.079 160.253C109.596 160.518 110.436 160.338 110.666 159.751C112.582 154.769 114.049 149.622 114.996 144.367C115.263 142.879 112.962 142.374 112.695 143.862Z" fill="white"/>
<path d="M101.816 151.358C96.5068 150.856 91.1822 151.044 85.9402 152.002C85.3176 152.118 84.7951 152.543 84.8316 153.231C84.862 153.804 85.4414 154.453 86.0641 154.336C91.0876 153.411 96.2308 153.159 101.319 153.642C101.961 153.702 102.564 153.419 102.717 152.742C102.835 152.203 102.448 151.419 101.816 151.358Z" fill="white"/>
<path d="M196.148 138.502C180.626 139.782 132.268 148.48 131.056 150.507C129.845 152.533 131.428 162.534 133.689 161.57C137.065 160.13 197.731 148.503 198.492 148.178C199.253 147.854 198.637 138.303 196.148 138.502Z" fill="#6D1E1D"/>
<path d="M174.242 170.326C174.242 170.326 157.561 152.131 152.465 154.762C147.369 157.393 154.784 166.633 154.784 166.633L174.242 170.326Z" fill="#E08C86"/>
<path d="M208.374 182.189C208.374 182.189 171.465 166.478 169.613 166.094C167.762 165.71 152.007 158.316 147.369 160.163C142.732 162.009 126.051 174.027 126.977 176.797C127.903 179.566 146.435 169.403 149.221 169.403C152.007 169.403 162.576 173.414 162.576 173.414C162.576 173.414 146.435 177.72 141.806 182.344C137.169 186.968 126.977 197.131 128.829 199.901C130.68 202.671 130.68 201.747 130.68 201.747C130.68 201.747 129.861 203.316 132.95 203.324C134.711 203.332 137.169 202.671 139.021 200.824C139.947 199.901 142.724 197.131 142.724 197.131C142.724 197.131 142.093 196.739 142.724 198.055C143.216 199.068 144.649 199.795 145.69 199.55C150.057 198.52 153.957 198.52 156.619 198.055C160.38 197.401 168.663 196.208 175.152 200.824C181.641 205.448 206.662 207.001 206.662 207.001" fill="#FFA9A0"/>
<path d="M138.095 201.804C138.07 201.747 138.038 201.698 138.021 201.632C137.989 201.542 137.792 201.542 137.587 201.559C137.464 201.567 137.3 201.591 137.022 201.714C135.76 202.261 134.441 202.743 133.122 202.874C132.352 202.948 131.524 202.85 131.164 202.367C131.106 202.31 131.049 202.204 131.025 202.163C131.016 202.22 131.049 201.902 131.172 201.681C131.418 201.093 131.836 200.521 132.237 199.966C132.696 199.336 133.22 198.74 133.72 198.136C133.892 197.923 134.048 197.719 134.236 197.506C134.949 196.722 135.678 195.954 136.415 195.186C137.489 194.067 138.587 192.964 139.701 191.886L140.045 191.567C141.135 190.505 142.282 189.484 143.461 188.569C144.436 187.841 145.624 187.392 146.788 186.845C147.468 186.534 148.189 186.265 148.877 185.979C150.057 185.48 151.261 185.064 152.457 184.614C153.268 184.304 154.096 184.026 154.923 183.748C156.013 183.397 157.078 182.972 158.16 182.58C158.7 182.384 159.241 182.196 159.798 182.049C160.167 181.951 160.355 181.869 160.38 181.771C160.413 181.665 160.396 181.575 160.306 181.51C160.142 181.387 159.978 181.273 159.839 181.142C159.749 181.06 159.765 181.052 159.307 181.199L159.077 181.273C158.266 181.534 157.488 181.853 156.66 182.114C156.341 182.221 156.005 182.343 155.734 182.474C155.521 182.58 155.308 182.645 155.087 182.727C154.604 182.899 154.071 183.038 153.662 183.275C153.629 183.291 153.547 183.324 153.506 183.332C153.285 183.373 153.113 183.471 152.924 183.552C152.67 183.658 152.433 183.765 152.154 183.855C151.392 184.108 150.638 184.377 149.893 184.688C148.934 185.088 147.959 185.35 147.017 185.807C146.968 185.832 146.902 185.856 146.861 185.864C146.435 185.954 145.985 186.183 145.583 186.395C145.19 186.583 144.854 186.804 144.436 186.951C144.289 187 144.043 187.131 143.912 187.237C143.658 187.425 143.412 187.531 143.166 187.711C142.601 188.111 142.06 188.536 141.602 189.018C141.544 189.075 141.487 189.124 141.43 189.157C141.192 189.288 140.93 189.565 140.791 189.712C140.577 189.933 140.356 190.113 140.176 190.301C139.947 190.538 139.775 190.611 139.57 190.815C139.07 191.33 138.562 191.837 138.029 192.335C137.726 192.613 137.423 192.89 137.153 193.209C137.071 193.307 136.956 193.405 136.858 193.471C136.76 193.536 136.661 193.642 136.563 193.74C135.826 194.492 135.096 195.252 134.392 196.028C133.63 196.869 132.893 197.735 132.155 198.601C132.098 198.675 131.999 198.773 131.983 198.83C131.934 198.977 131.819 199.1 131.688 199.247C131.573 199.369 131.459 199.533 131.352 199.671C131.098 199.99 130.902 200.35 130.664 200.685C130.508 200.905 130.361 201.142 130.238 201.42C130.172 201.551 130.123 201.722 130.082 201.885C130.066 201.984 130.058 202.09 130.05 202.204L130.148 202.58L130.295 202.809C130.566 203.217 131.008 203.511 131.434 203.65C131.868 203.805 132.303 203.846 132.72 203.846C133.704 203.838 134.621 203.601 135.498 203.34C136.227 203.111 136.915 202.817 137.603 202.506C138.07 202.294 138.161 202.237 138.218 202.09C138.267 201.967 138.161 201.894 138.095 201.804Z" fill="#0A0A0A"/>
<path d="M148.287 199.035C148.271 198.978 148.254 198.912 148.246 198.855C148.23 198.757 148.066 198.716 147.894 198.675C147.795 198.651 147.656 198.643 147.41 198.7C146.329 198.961 145.19 199.214 144.273 198.92C143.732 198.749 143.33 198.332 143.109 197.777L143.027 197.548C142.994 197.474 142.962 197.384 142.97 197.36C142.953 197.327 142.953 197.286 142.962 197.237C142.953 197.197 142.97 197.148 142.986 197.098C143.076 196.723 143.502 196.314 143.904 195.971C144.371 195.579 144.92 195.252 145.452 194.917C145.641 194.803 145.805 194.68 146.018 194.582C146.78 194.19 147.558 193.822 148.344 193.471C149.491 192.956 150.663 192.474 151.843 192.033L152.203 191.902C153.358 191.453 154.546 191.085 155.734 190.718C156.734 190.416 157.742 190.179 158.725 190.023C159.315 189.925 159.929 189.909 160.527 189.868C161.551 189.786 162.592 189.827 163.624 189.827C164.329 189.827 165.033 189.86 165.746 189.909C166.672 189.974 167.606 189.983 168.54 190.023C169.007 190.048 169.474 190.081 169.933 190.146C170.236 190.195 170.408 190.187 170.457 190.105C170.514 190.023 170.531 189.933 170.49 189.835C170.408 189.664 170.326 189.492 170.269 189.321C170.228 189.206 170.244 189.206 169.851 189.174L169.654 189.157C168.958 189.092 168.27 189.1 167.565 189.035C167.295 189.01 167 189.002 166.754 189.027C166.565 189.043 166.377 189.027 166.189 189.018C165.771 189.002 165.328 188.929 164.935 189.01C164.911 189.018 164.829 189.01 164.804 189.002C164.624 188.961 164.46 188.986 164.296 188.994C164.075 189.002 163.854 189.018 163.616 189.002C162.961 188.969 162.305 188.953 161.65 188.994C160.798 189.035 159.97 188.969 159.118 189.1C159.077 189.108 159.012 189.108 158.979 189.108C158.618 189.076 158.209 189.149 157.832 189.255C157.471 189.337 157.176 189.46 156.816 189.5C156.685 189.517 156.472 189.566 156.357 189.623C156.128 189.721 155.915 189.754 155.693 189.819C155.169 189.966 154.62 190.113 154.137 190.334C154.071 190.367 154.014 190.375 153.965 190.383C153.744 190.391 153.457 190.522 153.309 190.595C153.08 190.701 152.859 190.759 152.662 190.849C152.416 190.963 152.252 190.938 152.039 191.028C151.499 191.257 150.958 191.478 150.393 191.682C150.081 191.796 149.754 191.902 149.459 192.066C149.36 192.115 149.246 192.156 149.155 192.172C149.057 192.188 148.951 192.237 148.844 192.278C148.049 192.613 147.263 192.965 146.493 193.357C145.657 193.782 144.854 194.247 144.043 194.754C143.978 194.795 143.871 194.86 143.855 194.901C143.789 195.015 143.658 195.081 143.519 195.17C143.396 195.252 143.273 195.35 143.158 195.448C142.888 195.669 142.667 195.938 142.429 196.224C142.249 196.437 142.085 196.706 142.019 197.058C142.011 197.148 141.995 197.237 141.995 197.327C142.003 197.417 142.019 197.515 142.036 197.613C142.077 197.801 142.134 197.883 142.183 198.022C142.437 198.651 142.88 199.313 143.568 199.664C144.371 200.089 145.239 200.064 146.001 199.991C146.64 199.917 147.238 199.762 147.828 199.615C148.23 199.517 148.303 199.484 148.369 199.353C148.402 199.223 148.328 199.133 148.287 199.035Z" fill="#0A0A0A"/>
<path d="M126.936 176.763C126.994 176.772 127.059 176.772 127.116 176.78C127.207 176.796 127.321 176.641 127.411 176.51C127.477 176.428 127.567 176.314 127.657 176.069C127.895 175.505 128.28 174.958 128.706 174.435C129.124 173.912 129.591 173.414 130.074 172.932C130.656 172.352 131.27 171.788 131.901 171.265C132.245 170.987 132.589 170.685 132.884 170.424C133.4 169.958 133.941 169.533 134.482 169.1C135.088 168.618 135.719 168.161 136.342 167.687C136.555 167.523 136.743 167.36 136.981 167.196L139.57 165.415C140.831 164.558 142.11 163.724 143.412 162.915L143.814 162.679C145.075 161.894 146.403 161.11 147.697 160.522C148.729 160.146 150.008 160.317 151.22 160.456C151.941 160.538 152.662 160.718 153.375 160.865C154.596 161.118 155.784 161.494 156.98 161.862C157.791 162.107 158.602 162.384 159.405 162.695C160.454 163.095 161.527 163.438 162.575 163.83C163.1 164.027 163.632 164.231 164.132 164.476C164.468 164.639 164.657 164.696 164.747 164.639C164.837 164.582 164.886 164.5 164.861 164.394C164.82 164.198 164.779 164.002 164.755 163.814C164.738 163.692 164.755 163.692 164.321 163.512L164.099 163.422C163.321 163.095 162.526 162.842 161.74 162.523C161.437 162.401 161.101 162.286 160.814 162.213C160.593 162.156 160.38 162.082 160.159 162C159.683 161.829 159.192 161.608 158.725 161.543C158.692 161.535 158.602 161.51 158.569 161.486C158.373 161.38 158.176 161.355 157.979 161.298C157.717 161.224 157.463 161.167 157.193 161.069C156.447 160.816 155.685 160.571 154.915 160.391C153.916 160.154 152.973 159.811 151.941 159.688C151.892 159.68 151.818 159.664 151.777 159.647C151.368 159.509 150.868 159.46 150.409 159.435C149.975 159.419 149.573 159.435 149.131 159.386C148.967 159.378 148.688 159.37 148.525 159.419C148.213 159.484 147.935 159.517 147.632 159.59C146.902 159.835 146.353 160.146 145.796 160.505C145.731 160.554 145.665 160.587 145.608 160.603C145.354 160.677 145.043 160.897 144.879 161.012C144.633 161.183 144.379 161.306 144.166 161.453C143.896 161.641 143.715 161.665 143.478 161.821C142.888 162.213 142.298 162.597 141.683 162.973C141.339 163.185 140.987 163.389 140.659 163.634C140.561 163.716 140.43 163.781 140.323 163.83C140.217 163.879 140.102 163.953 139.979 164.027C139.119 164.598 138.259 165.179 137.423 165.775C136.522 166.428 135.621 167.082 134.719 167.744C134.646 167.793 134.531 167.875 134.498 167.915C134.425 168.046 134.277 168.136 134.113 168.234C133.974 168.324 133.826 168.446 133.687 168.544C133.368 168.781 133.089 169.051 132.77 169.28C132.294 169.607 131.836 169.991 131.393 170.375C130.828 170.873 130.263 171.363 129.714 171.886C129.066 172.499 128.444 173.152 127.87 173.863C127.403 174.451 126.969 175.08 126.682 175.848C126.494 176.379 126.543 176.551 126.617 176.682C126.707 176.845 126.83 176.78 126.936 176.763Z" fill="#0A0A0A"/>
</g>
<defs>
<clipPath id="clip0">
<rect width="269" height="207" fill="white"/>
</clipPath>
</defs>
</svg>
