<svg width="269" height="207" viewBox="0 0 269 207" fill="none" xmlns="http://www.w3.org/2000/svg">
<g clip-path="url(#clip0)">
<path d="M129.324 29.1708C129.324 29.1708 156.645 29.1708 159.251 59.1515C161.858 89.1322 164.456 96.9498 161.85 102.164C159.243 107.379 148.841 113.899 143.636 112.593C143.636 112.593 143.636 121.716 151.44 123.022C159.243 124.327 142.333 141.268 142.333 141.268L100.7 133.45L92.8962 115.204C92.8962 115.204 99.4046 104.775 96.798 95.6522C94.1914 86.5291 88.9944 59.1596 91.5929 52.6396C94.1914 46.1196 111.11 33.0877 118.914 31.782C126.725 30.4683 129.324 29.1708 129.324 29.1708Z" fill="#FFABA2"/>
<path d="M130.237 54.5438C128.112 52.7759 125.136 52.8408 122.549 53.2139C120.489 53.5139 118.024 54.0248 116.353 55.3548C115.843 55.7683 115.924 56.6442 116.353 57.074C116.864 57.5849 117.562 57.4875 118.073 57.074C117.74 57.3416 118.113 57.0658 118.21 57.0091C118.356 56.9199 118.511 56.8469 118.673 56.7739C118.762 56.7334 118.851 56.6928 118.94 56.6523C118.681 56.7577 119.021 56.6198 119.046 56.6117C119.265 56.5306 119.492 56.4495 119.711 56.3765C120.749 56.0278 121.819 55.7846 122.898 55.6061C123.887 55.444 125.104 55.3791 126.182 55.4845C126.571 55.5169 127.082 55.6143 127.569 55.7764C127.796 55.8494 128.372 56.1495 128.51 56.2711C129.012 56.6928 129.734 56.7658 130.229 56.2711C130.667 55.8332 130.748 54.9655 130.237 54.5438Z" fill="black"/>
<path d="M148.078 56.263C148.224 56.1414 148.767 55.8575 149.019 55.7683C149.505 55.6061 150.024 55.5088 150.405 55.4764C151.484 55.3791 152.708 55.444 153.69 55.598C154.768 55.7764 155.839 56.0197 156.877 56.3684C157.104 56.4414 157.323 56.5225 157.542 56.6036C157.598 56.6198 157.898 56.7496 157.647 56.6442C157.736 56.6847 157.825 56.7252 157.915 56.7658C158.061 56.8307 158.199 56.9037 158.336 56.9848C158.434 57.0415 158.855 57.3497 158.507 57.074C159.018 57.4875 159.723 57.5767 160.226 57.074C160.648 56.6523 160.745 55.7683 160.226 55.3547C158.555 54.0167 156.098 53.5058 154.03 53.2139C151.443 52.8408 148.459 52.7759 146.342 54.5438C145.84 54.9655 145.905 55.8251 146.342 56.263C146.861 56.7658 147.575 56.6847 148.078 56.263Z" fill="black"/>
<path d="M96.7982 95.6442C96.7982 95.6442 107.208 85.2154 105.905 80.001C105.905 80.001 89.3103 74.4623 94.8878 62.3548C95.3573 61.333 98.1015 57.846 100.983 58.3893C102.999 58.7623 105.387 60.1166 107.208 64.366C111.79 75.0786 104.61 43.5084 113.717 40.9053C122.824 38.3021 157.276 53.3128 165.76 44.814C173.564 36.9965 169.662 30.4765 161.858 26.5677C161.858 26.5677 160.555 7.01578 144.948 18.7502C133.08 27.6706 113.725 26.5677 100.708 22.659C87.6913 18.7502 62.969 44.8059 96.7982 95.6442Z" fill="#191919"/>
<path d="M187.5 200.33C203.688 200.596 223 200.33 223 200.33V192.09C223 192.09 221.697 163.415 206.786 148.056C191.875 132.696 151.44 123.006 151.44 123.006C121.512 139.946 92.8883 115.188 92.8883 115.188C92.8883 115.188 38.6029 125.617 36.4739 141.252C34.3449 156.887 22 199.081 22 199.081C22 199.081 39.7282 201.53 49.1832 201.838C55.4568 202.041 61.3419 201.797 64.0295 202" fill="#2E95FD"/>
<path d="M122.21 129.361C122.226 129.304 122.242 129.239 122.258 129.182C122.291 129.093 122.177 128.98 122.056 128.866C121.983 128.801 121.877 128.72 121.65 128.663L118.569 127.893C117.952 127.731 117.336 127.544 116.736 127.35C116.412 127.244 116.071 127.147 115.779 127.082C115.26 126.952 114.749 126.822 114.246 126.66C113.679 126.482 113.119 126.271 112.543 126.101C112.349 126.044 112.154 125.995 111.951 125.922C111.189 125.671 110.451 125.363 109.697 125.087L108.059 124.471L106.437 123.798L106.112 123.652C105.034 123.254 104.02 122.703 102.974 122.241C102.106 121.819 101.279 121.332 100.403 120.911C99.9087 120.635 99.406 120.367 98.9113 120.092C98.0598 119.646 97.2569 119.127 96.446 118.632C95.8946 118.291 95.3431 117.943 94.8241 117.545C94.1348 117.042 93.4131 116.58 92.7319 116.077C92.3832 115.826 92.0588 115.55 91.7587 115.258C91.5641 115.056 91.4425 114.974 91.3614 115.007C91.2722 115.039 91.1992 115.096 91.1667 115.193C91.1181 115.372 91.0775 115.55 91.0208 115.721C90.9802 115.834 90.9721 115.826 91.2559 116.069L91.3938 116.183C91.8966 116.613 92.4237 116.969 92.9427 117.367C93.1454 117.521 93.3644 117.683 93.5671 117.788C93.7293 117.87 93.8672 117.967 94.0132 118.072C94.3375 118.291 94.6457 118.567 94.9944 118.689C95.0187 118.697 95.0755 118.737 95.0998 118.754C95.2215 118.875 95.3674 118.924 95.5053 118.997C95.6837 119.094 95.8621 119.191 96.0405 119.313C96.5352 119.662 97.0623 119.97 97.5894 120.262C98.2706 120.651 98.8951 121.089 99.6006 121.43C99.633 121.446 99.6817 121.478 99.706 121.503C99.9493 121.73 100.298 121.884 100.614 122.014C100.914 122.143 101.19 122.249 101.458 122.443C101.555 122.516 101.733 122.606 101.847 122.646C102.066 122.719 102.228 122.833 102.423 122.93C102.877 123.149 103.339 123.392 103.809 123.538C103.874 123.554 103.915 123.579 103.955 123.611C104.109 123.749 104.385 123.838 104.531 123.887C104.75 123.96 104.937 124.073 105.123 124.13C105.358 124.203 105.456 124.325 105.658 124.398C106.169 124.576 106.672 124.779 107.175 124.998C107.459 125.119 107.734 125.274 108.043 125.347C108.14 125.371 108.237 125.419 108.31 125.468C108.383 125.517 108.489 125.557 108.586 125.59L110.808 126.425C111.619 126.701 112.438 126.944 113.233 127.244C113.297 127.268 113.395 127.309 113.435 127.309C113.557 127.293 113.671 127.35 113.8 127.406C113.914 127.463 114.052 127.496 114.173 127.544C114.457 127.658 114.757 127.69 115.033 127.804C115.446 127.966 115.876 128.096 116.314 128.217L117.96 128.712L119.923 129.223C120.466 129.353 121.001 129.49 121.545 129.62C121.91 129.709 121.991 129.726 122.096 129.636C122.218 129.588 122.202 129.474 122.21 129.361Z" fill="#0A0A0A"/>
<path d="M99.7852 63.6605C99.7852 64.6336 100.036 65.6473 100.344 66.5636C101.089 68.7532 102.432 70.6833 104.173 72.1835C104.416 71.8672 104.667 71.5429 104.909 71.2266C104.545 70.9995 104.084 70.886 103.671 70.8211C102.513 70.6346 101.339 70.8211 100.222 71.1617C99.4776 71.3969 99.7933 72.5647 100.546 72.3376C101.469 72.0538 102.457 71.851 103.42 72.0051C103.671 72.0457 103.922 72.1186 104.165 72.2078C104.278 72.2484 104.051 72.1592 104.157 72.2078C104.181 72.216 104.205 72.2322 104.229 72.2403C104.254 72.2484 104.278 72.2646 104.294 72.2808C104.869 72.6376 105.557 71.778 105.031 71.3239C103.42 69.9372 102.157 68.1855 101.485 66.1582C101.283 65.5419 101.129 64.9093 101.04 64.2687C101.064 64.4228 101.024 64.1308 101.016 64.074C101.008 64.0011 100.999 63.92 100.999 63.847C100.999 63.7821 100.991 63.7172 100.991 63.6605C100.991 62.8738 99.7771 62.8738 99.7852 63.6605Z" fill="#020202"/>
<path d="M117.991 68.7532C117.991 68.7532 123.496 70.5941 131.599 68.7776C139.605 66.9854 131.526 62.2089 123.617 62.5333C118.493 62.736 111.191 65.5419 117.991 68.7532Z" fill="white"/>
<path d="M126.871 63.1983C129.68 66.661 126.734 69.0776 125.447 69.3777C124.84 69.5155 122.605 69.3777 121.65 68.4289C119.691 66.4664 120.8 63.6524 121.95 62.8496C122.484 62.4765 123.075 62.2495 124.5 62.2495C125.924 62.2495 126.475 62.7117 126.871 63.1983Z" fill="black"/>
<path d="M146.615 68.7532C146.615 68.7532 151.747 70.4643 159.397 68.9478C159.672 68.891 160.223 68.7775 160.223 68.7775L159.656 63.628C159.656 63.628 159.195 63.4739 158.96 63.4009C157.001 62.8008 154.613 62.4359 152.241 62.5332C147.117 62.736 139.815 65.5418 146.615 68.7532Z" fill="white"/>
<path d="M156.013 63.1983C158.822 66.661 155.876 69.0776 154.589 69.3777C153.982 69.5155 151.747 69.3777 150.792 68.4289C148.833 66.4664 149.942 63.6524 151.092 62.8496C151.626 62.4765 152.217 62.2495 153.642 62.2495C155.066 62.2495 155.617 62.7117 156.013 63.1983Z" fill="black"/>
<path d="M138.302 64.7228C139.038 69.7425 140.706 74.6001 143.256 78.9873C144.389 80.9336 146.923 83.7233 145.288 86.0264C143.774 88.1591 141.37 88.4592 138.974 88.5889C138.196 88.6295 138.188 89.8459 138.974 89.8054C141.418 89.6675 143.507 89.3756 145.385 87.6888C147.522 85.775 147.263 83.3583 145.935 81.0228C144.438 78.4034 142.867 75.9301 141.766 73.0999C140.673 70.294 139.913 67.3746 139.484 64.3984C139.362 63.628 138.196 63.9605 138.302 64.7228Z" fill="#020202"/>
<path d="M129.065 96.7877C132.837 101.118 139.224 102.789 144.624 100.859C145.352 100.599 145.036 99.4233 144.3 99.6828C139.273 101.483 133.428 99.9585 129.923 95.9281C129.405 95.3361 128.555 96.1957 129.065 96.7877Z" fill="#020202"/>
<path d="M143.531 112.382C143.531 112.382 143.021 112.277 142.616 112.309C132.287 113.063 126.426 110.687 117.521 106.633C117.521 106.633 123.585 119.997 133.606 121.14C139.427 121.805 142.559 118.732 144.17 116.031" fill="#191919"/>
<path d="M135.468 129.477L135.476 129.655C135.476 129.753 135.557 129.826 135.638 129.899C135.687 129.939 135.752 129.98 135.881 129.972C136.432 129.915 136.982 129.842 137.524 129.761C137.848 129.704 138.18 129.663 138.512 129.615C138.69 129.59 138.868 129.558 139.022 129.517C139.305 129.444 139.564 129.388 139.823 129.315C140.123 129.242 140.43 129.201 140.73 129.104C140.835 129.071 140.924 129.031 141.038 129.007C141.442 128.925 141.855 128.828 142.252 128.715C142.843 128.561 143.418 128.366 143.992 128.163L144.17 128.106C144.729 127.879 145.296 127.685 145.846 127.45C146.299 127.231 146.793 127.093 147.23 126.825C147.481 126.663 147.765 126.541 148.016 126.387C148.453 126.136 148.874 125.852 149.295 125.56C149.578 125.374 149.853 125.146 150.136 124.936C150.509 124.66 150.833 124.344 151.116 123.979C151.27 123.8 151.424 123.638 151.602 123.492C151.723 123.395 151.764 123.322 151.715 123.249C151.666 123.176 151.602 123.111 151.513 123.07C151.359 122.997 151.205 122.924 151.059 122.843C150.962 122.787 150.97 122.787 150.841 122.908L150.784 122.973C150.565 123.2 150.387 123.46 150.153 123.679C150.055 123.752 149.958 123.841 149.894 123.946C149.845 124.019 149.78 124.076 149.707 124.133C149.562 124.254 149.375 124.352 149.295 124.53C149.286 124.546 149.262 124.563 149.246 124.571C149.157 124.595 149.125 124.676 149.068 124.725C148.995 124.79 148.922 124.863 148.825 124.919C148.566 125.073 148.307 125.228 148.064 125.414C147.748 125.649 147.352 125.722 147.036 125.957C147.02 125.966 146.996 125.982 146.979 125.982C146.801 125.99 146.656 126.111 146.502 126.193C146.364 126.274 146.243 126.371 146.073 126.395C146.008 126.403 145.919 126.444 145.87 126.485C145.781 126.558 145.684 126.582 145.579 126.622C145.352 126.728 145.093 126.785 144.891 126.939C144.867 126.955 144.834 126.963 144.81 126.963C144.697 126.947 144.575 127.028 144.51 127.068C144.413 127.133 144.308 127.158 144.219 127.206C144.114 127.271 144.025 127.231 143.928 127.271C143.677 127.385 143.426 127.482 143.159 127.555C143.005 127.596 142.859 127.628 142.713 127.701C142.673 127.725 142.608 127.725 142.559 127.717C142.511 127.709 142.462 127.725 142.406 127.741L141.256 128.058C140.843 128.163 140.43 128.293 140.001 128.35C139.969 128.358 139.912 128.358 139.896 128.382C139.856 128.447 139.783 128.439 139.71 128.439C139.645 128.439 139.572 128.463 139.508 128.463C139.354 128.479 139.216 128.552 139.062 128.561C138.836 128.561 138.609 128.601 138.391 128.642C138.107 128.698 137.824 128.731 137.541 128.771L136.529 128.901L135.703 129.007C135.517 129.023 135.484 129.031 135.444 129.144C135.428 129.266 135.46 129.372 135.468 129.477Z" fill="#0A0A0A"/>
<path d="M153.65 153.814L153.423 153.53C153.31 153.384 153.132 153.311 152.962 153.246C152.856 153.213 152.743 153.189 152.63 153.286C152.136 153.732 151.65 154.195 151.173 154.665C150.889 154.949 150.606 155.249 150.306 155.508C150.145 155.646 149.999 155.817 149.894 155.979C149.707 156.263 149.489 156.514 149.286 156.782C149.052 157.074 148.785 157.341 148.574 157.657C148.501 157.763 148.453 157.884 148.364 157.982C148.032 158.355 147.708 158.752 147.408 159.158C146.963 159.758 146.583 160.35 146.17 161.023C146.129 161.096 146.073 161.161 146.032 161.234C145.862 161.607 145.668 162.037 145.603 162.556C145.571 162.799 145.571 163.091 145.644 163.399C145.725 163.699 145.83 163.926 146.04 164.202C146.38 164.64 146.874 164.972 147.433 165.029C147.983 165.086 148.574 164.859 148.93 164.396C149.036 164.267 149.141 164.113 149.214 163.983C149.278 163.869 149.343 163.756 149.392 163.65C149.497 163.431 149.554 163.221 149.602 163.01C149.74 162.288 149.813 161.558 149.667 160.853C149.562 160.382 149.448 159.912 149.27 159.45C149.044 158.841 148.582 158.347 148.097 157.941C147.846 157.739 147.595 157.536 147.368 157.309C147.206 157.163 147.077 157.138 146.971 157.268C146.858 157.406 146.769 157.56 146.704 157.739C146.599 158.055 146.469 158.363 146.332 158.655C146.235 158.85 146.235 158.849 146.372 158.939L146.437 158.987C146.672 159.166 146.955 159.304 147.125 159.579C147.19 159.677 147.271 159.782 147.392 159.839C147.489 159.879 147.514 159.969 147.562 160.042C147.659 160.22 147.651 160.431 147.87 160.552C147.886 160.561 147.894 160.593 147.886 160.617C147.846 160.723 147.935 160.771 147.975 160.844C148.032 160.942 148.088 161.039 148.088 161.153C148.105 161.469 148.088 161.777 148.105 162.085C148.121 162.491 147.805 162.839 147.748 163.131C147.74 163.148 147.732 163.156 147.716 163.148C147.57 163.099 147.603 163.131 147.578 163.188C147.57 163.237 147.506 163.318 147.481 163.196C147.473 163.156 147.465 163.139 147.441 163.164C147.392 163.212 147.392 163.148 147.392 163.131C147.384 163.115 147.392 163.107 147.384 163.091L147.352 163.01C147.327 162.953 147.303 162.929 147.238 162.872C147.222 162.856 147.23 162.831 147.255 162.823C147.368 162.766 147.319 162.677 147.303 162.604C147.279 162.507 147.344 162.434 147.344 162.337C147.344 162.215 147.506 162.215 147.53 162.11C147.603 161.85 147.748 161.566 147.959 161.315C148.072 161.169 148.21 161.039 148.267 160.853C148.283 160.796 148.339 160.755 148.404 160.731C148.469 160.715 148.501 160.658 148.542 160.609L149.376 159.482C149.675 159.077 149.958 158.655 150.331 158.306C150.363 158.274 150.42 158.241 150.404 158.201C150.355 158.079 150.444 158.047 150.517 158.006C150.59 157.966 150.63 157.893 150.695 157.844C150.833 157.73 150.889 157.536 151.043 157.447C151.278 157.309 151.464 157.114 151.642 156.919C151.877 156.676 152.12 156.441 152.371 156.214C152.662 155.946 152.945 155.662 153.245 155.395C153.496 155.176 153.706 154.933 153.957 154.714C154.127 154.568 154.152 154.527 154.046 154.324C153.957 154.114 153.795 153.968 153.65 153.814Z" fill="#D4EAFC"/>
<path d="M174.923 139.946L174.64 139.719C174.494 139.598 174.316 139.557 174.13 139.533C174.025 139.516 173.903 139.516 173.814 139.63L172.624 141.195C172.382 141.503 172.147 141.828 171.872 142.112C171.726 142.266 171.596 142.444 171.507 142.606C171.345 142.906 171.151 143.15 170.957 143.433C170.738 143.75 170.463 144.05 170.277 144.431C170.212 144.561 170.172 144.698 170.099 144.836C169.815 145.347 169.589 145.988 169.629 146.685C169.67 147.269 169.913 147.78 170.253 148.169C170.593 148.567 171.03 148.883 171.621 149.029C171.742 149.045 171.863 149.094 172.001 149.094C172.649 149.11 173.312 148.745 173.644 148.258C174.001 147.764 174.106 147.253 174.13 146.799C174.162 146.037 174.162 145.38 173.928 144.707C173.79 144.325 173.693 143.928 173.499 143.579C173.159 142.995 172.851 142.387 172.39 141.884C172.074 141.552 171.766 141.211 171.426 140.887C170.981 140.465 170.406 140.198 169.84 139.995C169.548 139.89 169.273 139.776 168.998 139.63C168.82 139.533 168.698 139.541 168.625 139.695C168.553 139.857 168.496 140.027 168.48 140.214C168.447 140.546 168.407 140.871 168.35 141.195C168.31 141.406 168.302 141.406 168.48 141.463C168.512 141.471 168.544 141.479 168.569 141.487C168.868 141.617 169.224 141.649 169.5 141.86C169.605 141.941 169.734 141.998 169.872 142.014C169.977 142.022 170.05 142.087 170.131 142.144C170.293 142.282 170.406 142.476 170.657 142.493C170.673 142.493 170.706 142.525 170.706 142.541C170.722 142.655 170.827 142.663 170.908 142.712C171.005 142.776 171.103 142.841 171.175 142.939C171.362 143.223 171.532 143.506 171.742 143.766C172.009 144.123 171.985 144.585 172.212 144.95C172.22 144.966 172.228 144.998 172.22 145.023C172.122 145.234 172.228 145.404 172.301 145.582C172.365 145.745 172.471 145.891 172.382 146.077C172.349 146.142 172.349 146.247 172.39 146.312C172.462 146.426 172.414 146.523 172.406 146.62C172.382 146.864 172.292 147.034 172.341 147.212C172.349 147.237 172.333 147.245 172.309 147.245C172.187 147.237 172.212 147.293 172.212 147.342C172.212 147.407 172.163 147.391 172.155 147.431C172.131 147.488 172.09 147.35 172.074 147.366C172.017 147.431 171.815 147.399 171.685 147.245C171.612 147.164 171.572 147.058 171.459 147.01C171.418 146.993 171.418 146.945 171.442 146.904C171.467 146.856 171.442 146.831 171.442 146.799C171.418 146.742 171.41 146.693 171.402 146.645C171.402 146.612 171.394 146.547 171.394 146.466C171.402 146.32 171.434 146.166 171.475 145.996C171.572 145.639 171.766 145.234 172.098 144.885C172.122 144.853 172.179 144.82 172.155 144.78C172.098 144.666 172.179 144.625 172.252 144.585C172.325 144.544 172.357 144.471 172.422 144.415C172.56 144.293 172.6 144.09 172.754 143.985C172.989 143.823 173.159 143.604 173.329 143.385C173.547 143.109 173.774 142.841 174.001 142.574L174.778 141.601C174.996 141.341 175.174 141.049 175.385 140.773C175.53 140.587 175.547 140.538 175.409 140.368C175.28 140.19 175.101 140.076 174.923 139.946Z" fill="#D4EAFC"/>
<path d="M178.882 176.723L178.558 176.552C178.388 176.463 178.21 176.447 178.048 176.414C177.951 176.398 177.846 176.39 177.797 176.463C177.587 176.796 177.23 177.104 176.785 177.38C176.518 177.55 176.227 177.712 175.903 177.834C175.725 177.899 175.555 177.996 175.417 178.101C175.158 178.296 174.875 178.458 174.608 178.661C174.308 178.88 173.976 179.083 173.709 179.383C173.62 179.488 173.547 179.602 173.45 179.715C173.07 180.104 172.73 180.64 172.6 181.256C172.56 181.459 172.527 181.742 172.56 182.018C172.592 182.286 172.665 182.537 172.778 182.756C172.997 183.202 173.312 183.551 173.693 183.827C173.774 183.883 173.839 183.956 173.928 183.989C174.138 184.094 174.365 184.183 174.624 184.232C174.867 184.297 175.199 184.297 175.482 184.24C176.065 184.143 176.583 183.664 176.793 183.145C177.101 182.31 177.149 181.742 177.068 181.094C177.004 180.729 176.988 180.348 176.858 179.999C176.639 179.415 176.461 178.815 176.113 178.296C175.878 177.947 175.652 177.59 175.393 177.25C175.061 176.788 174.567 176.487 174.081 176.212C173.839 176.074 173.596 175.936 173.377 175.758C173.231 175.636 173.118 175.636 173.029 175.774C172.932 175.92 172.851 176.082 172.802 176.26C172.713 176.577 172.616 176.893 172.511 177.201C172.438 177.404 172.43 177.404 172.576 177.477C172.6 177.485 172.624 177.493 172.649 177.509C172.891 177.663 173.199 177.736 173.409 177.963C173.49 178.045 173.596 178.117 173.717 178.142C173.814 178.158 173.871 178.223 173.928 178.288C174.057 178.426 174.114 178.628 174.349 178.661C174.365 178.661 174.389 178.693 174.381 178.709C174.373 178.815 174.47 178.839 174.527 178.888C174.608 178.953 174.697 179.018 174.729 179.123C174.85 179.399 174.964 179.675 175.101 179.942C175.296 180.291 175.174 180.704 175.328 181.053C175.336 181.069 175.328 181.102 175.32 181.118C175.199 181.288 175.247 181.45 175.296 181.613C175.328 181.759 175.409 181.913 175.288 182.051C175.247 182.099 175.231 182.172 175.255 182.221C175.304 182.31 175.239 182.367 175.215 182.416C175.134 182.545 175.126 182.464 175.134 182.61C175.134 182.626 175.126 182.626 175.109 182.602C175.053 182.497 175.061 182.561 175.045 182.594C175.029 182.643 174.988 182.594 174.931 182.618C174.85 182.634 174.867 182.497 174.81 182.48C174.648 182.464 174.47 182.343 174.397 182.188C174.357 182.099 174.349 182.002 174.268 181.953C174.243 181.937 174.243 181.897 174.284 181.872C174.324 181.848 174.324 181.824 174.316 181.807C174.316 181.767 174.316 181.759 174.324 181.694C174.332 181.629 174.349 181.564 174.373 181.507C174.413 181.386 174.462 181.264 174.543 181.134C174.697 180.858 174.939 180.558 175.296 180.372C175.328 180.356 175.377 180.339 175.369 180.299C175.344 180.177 175.417 180.177 175.498 180.161C175.563 180.153 175.619 180.104 175.676 180.08C175.814 180.031 175.903 179.877 176.057 179.853C176.283 179.82 176.502 179.715 176.728 179.593L177.619 179.139C177.983 178.945 178.339 178.693 178.696 178.393C178.987 178.15 179.238 177.826 179.456 177.477C179.61 177.242 179.61 177.169 179.448 177.023C179.278 176.877 179.076 176.812 178.882 176.723Z" fill="#D4EAFC"/>
<path d="M112.972 137.149L112.632 137.019C112.454 136.946 112.276 136.954 112.106 136.954C112.009 136.954 111.896 136.962 111.847 137.059C111.645 137.497 111.305 137.927 110.892 138.349C110.641 138.608 110.374 138.868 110.074 139.103C109.912 139.233 109.758 139.387 109.637 139.549C109.41 139.841 109.208 140.108 108.989 140.392C108.755 140.717 108.488 141.041 108.326 141.447C108.269 141.584 108.245 141.722 108.18 141.876C107.937 142.42 107.799 143.036 107.897 143.717C108.083 144.788 108.779 145.542 109.678 145.947C109.775 145.988 109.864 146.036 109.969 146.069C110.455 146.199 111.062 146.207 111.604 145.955C112.147 145.704 112.535 145.258 112.729 144.739C113.037 143.879 113.005 143.093 112.754 142.428C112.608 142.047 112.478 141.633 112.284 141.333C111.952 140.806 111.677 140.238 111.28 139.752C111.013 139.427 110.754 139.087 110.495 138.738C110.155 138.292 109.669 137.976 109.208 137.659C108.973 137.505 108.755 137.343 108.56 137.124C108.431 136.986 108.326 136.962 108.212 137.084C108.091 137.213 107.986 137.359 107.905 137.53C107.767 137.83 107.621 138.13 107.468 138.414C107.362 138.608 107.354 138.6 107.516 138.714L107.597 138.77C107.872 138.981 108.204 139.127 108.447 139.387C108.544 139.492 108.658 139.581 108.795 139.614C108.909 139.638 108.957 139.719 109.03 139.792C109.184 139.946 109.265 140.173 109.516 140.214C109.532 140.214 109.556 140.246 109.556 140.271C109.564 140.384 109.669 140.409 109.734 140.465C109.831 140.538 109.92 140.603 109.985 140.717C110.155 141.009 110.325 141.309 110.528 141.576C110.795 141.925 110.811 142.42 111.037 142.728C111.046 142.744 111.046 142.776 111.037 142.793C110.948 142.995 111.046 143.141 111.11 143.295C111.175 143.433 111.256 143.563 111.159 143.701C111.127 143.75 111.11 143.823 111.143 143.871C111.199 143.96 111.135 144.025 111.11 144.082C111.046 144.228 110.948 144.261 110.94 144.423C110.94 144.447 110.924 144.447 110.9 144.431C110.803 144.35 110.811 144.423 110.778 144.463C110.746 144.528 110.689 144.488 110.641 144.52C110.568 144.561 110.552 144.415 110.487 144.415C110.317 144.431 110.098 144.342 109.969 144.179C109.888 144.082 109.848 143.977 109.726 143.92C109.694 143.904 109.686 143.855 109.71 143.806C109.726 143.758 109.718 143.725 109.702 143.693C109.645 143.563 109.629 143.482 109.621 143.344C109.613 143.19 109.629 143.036 109.661 142.874C109.718 142.533 109.864 142.136 110.155 141.82C110.179 141.795 110.228 141.763 110.204 141.722C110.147 141.617 110.22 141.584 110.285 141.544C110.349 141.511 110.382 141.447 110.438 141.398C110.56 141.301 110.6 141.114 110.746 141.041C110.965 140.928 111.143 140.757 111.329 140.571L112.09 139.865C112.397 139.573 112.697 139.249 112.997 138.884C113.239 138.584 113.426 138.227 113.604 137.854C113.725 137.603 113.725 137.53 113.547 137.4C113.385 137.27 113.175 137.221 112.972 137.149Z" fill="#D4EAFC"/>
<path d="M93.0339 164.145L92.7587 163.91C92.6211 163.78 92.4106 163.772 92.2082 163.764C92.0868 163.764 91.9492 163.788 91.8197 163.95L90.0954 166.116C89.7473 166.545 89.3992 166.991 89.0188 167.389C88.8164 167.608 88.6221 167.851 88.4845 168.07C88.2335 168.467 87.9421 168.824 87.6588 169.221C87.3431 169.659 86.9869 170.089 86.7198 170.6C86.6307 170.77 86.566 170.957 86.4688 171.135C86.0965 171.808 85.7888 172.587 85.7322 173.438C85.6512 174.647 85.9588 175.96 86.9302 176.934C87.0274 177.031 87.1245 177.136 87.2379 177.217C87.7802 177.607 88.4764 177.89 89.2454 177.834C89.634 177.809 90.0711 177.655 90.4192 177.363C90.7592 177.08 90.9859 176.682 91.0911 176.317C91.2692 175.701 91.253 175.174 91.2206 174.679C91.1721 174.209 91.1154 173.779 90.9778 173.341C90.8321 172.838 90.7349 172.311 90.5487 171.825C90.2168 170.997 89.9416 170.162 89.5045 169.384C89.213 168.857 88.9216 168.329 88.6221 167.794C88.2336 167.097 87.6588 166.521 87.1002 165.961C86.825 165.678 86.5417 165.394 86.3069 165.078C86.1531 164.867 86.0155 164.794 85.8698 164.891C85.716 164.988 85.5865 165.118 85.4974 165.28C85.3274 165.572 85.1574 165.856 84.9712 166.132C84.8498 166.31 84.8417 166.31 85.0522 166.513C85.0846 166.545 85.125 166.578 85.1574 166.618C85.5055 167.008 85.9426 167.316 86.2341 167.762C86.3555 167.932 86.4931 168.102 86.6631 168.208C86.7926 168.289 86.8655 168.411 86.9464 168.532C87.1326 168.792 87.2298 169.124 87.5293 169.294C87.5536 169.303 87.5779 169.359 87.5779 169.384C87.5859 169.538 87.7074 169.611 87.7883 169.716C87.8936 169.854 88.0069 169.976 88.0716 170.146C88.274 170.608 88.4521 171.079 88.6788 171.525C88.9621 172.117 88.954 172.773 89.213 173.374C89.2292 173.406 89.2292 173.446 89.2211 173.479C89.1321 173.771 89.2535 174.055 89.3426 174.33C89.4235 174.582 89.5449 174.825 89.464 175.068C89.4397 175.158 89.4316 175.295 89.4721 175.368C89.5368 175.514 89.4802 175.636 89.4478 175.741C89.3588 176.001 89.2859 175.993 89.2211 176.155C89.205 176.179 89.1888 176.179 89.1645 176.155C89.0835 176.058 88.9864 176.131 88.9054 176.147C88.7921 176.179 88.6869 176.115 88.5816 176.106C88.4359 176.098 88.4521 175.928 88.3307 175.879C88.0474 175.75 87.8045 175.49 87.675 175.158C87.6102 174.963 87.5779 174.76 87.4645 174.574C87.4321 174.509 87.4402 174.428 87.4726 174.363C87.505 174.298 87.4969 174.225 87.4888 174.152C87.4402 173.601 87.5212 173.09 87.7236 172.538C87.9259 171.946 88.2335 171.354 88.6869 170.827C88.7273 170.787 88.7921 170.73 88.7759 170.681C88.7354 170.543 88.8326 170.478 88.9297 170.405C89.0188 170.341 89.0835 170.235 89.1564 170.162C89.3345 169.984 89.4235 169.724 89.634 169.57C89.9416 169.327 90.1845 169.027 90.4273 168.719C90.7349 168.329 91.0587 167.956 91.3825 167.583L92.4996 166.229C92.8153 165.864 93.0825 165.467 93.382 165.094C93.5844 164.842 93.6168 164.777 93.4953 164.583C93.3982 164.38 93.212 164.275 93.0339 164.145Z" fill="#D4EAFC"/>
<path d="M65.1384 138.357L64.9198 138.065C64.8065 137.911 64.6446 137.83 64.4665 137.765C64.3613 137.724 64.2399 137.7 64.1184 137.805C63.5842 138.276 63.0904 138.803 62.6451 139.354C62.3861 139.695 62.1352 140.036 61.868 140.384C61.7304 140.571 61.609 140.773 61.5442 140.968C61.3985 141.317 61.269 141.633 61.1395 141.957C61.0018 142.33 60.8157 142.687 60.7347 143.085C60.7023 143.206 60.7023 143.36 60.6538 143.531C60.5 144.147 60.4838 144.747 60.6133 145.372C60.7185 145.818 60.8885 146.296 61.2933 146.742C61.7304 147.221 62.4832 147.456 63.1147 147.269C63.2442 147.229 63.3818 147.204 63.5032 147.148C63.7865 146.985 64.0537 146.774 64.2237 146.491C64.4099 146.215 64.4989 145.891 64.5475 145.631C64.6203 145.096 64.5556 144.634 64.4341 144.212C64.3289 143.855 64.2075 143.514 64.0456 143.174C63.9646 143.004 63.8675 142.841 63.7623 142.687C63.6489 142.533 63.5032 142.363 63.398 142.274C63.1227 142.022 62.8961 141.714 62.6128 141.487C62.119 141.098 61.6899 140.636 61.1718 140.279C60.8157 140.044 60.4838 139.776 60.1438 139.517C59.6985 139.168 59.1562 138.973 58.6381 138.762C58.379 138.657 58.12 138.543 57.9014 138.365C57.7476 138.251 57.6424 138.251 57.5453 138.389C57.4481 138.535 57.3672 138.706 57.3267 138.884C57.2457 139.2 57.1648 139.525 57.0677 139.841C57.0029 140.052 56.9948 140.044 57.1891 140.133L57.2862 140.173C57.6181 140.344 57.9905 140.417 58.3062 140.628C58.4276 140.709 58.5652 140.782 58.719 140.782C58.8324 140.79 58.9133 140.846 59.0024 140.903C59.1966 141.025 59.3424 141.228 59.6095 141.203C59.6257 141.203 59.6581 141.228 59.6662 141.244C59.7066 141.357 59.82 141.349 59.9009 141.39C60.0142 141.438 60.1276 141.479 60.2247 141.568C60.4838 141.811 60.7428 142.055 61.0342 142.258C61.4147 142.525 61.5847 142.987 61.9733 143.247C61.9894 143.263 62.0056 143.287 62.0056 143.312C62.0137 143.433 62.0623 143.523 62.1352 143.604C62.1999 143.677 62.2485 143.717 62.3213 143.766C62.4347 143.863 62.5723 143.952 62.5561 144.147C62.548 144.22 62.5804 144.301 62.637 144.342C62.7342 144.415 62.7342 144.528 62.7504 144.625C62.807 144.861 62.7989 145.088 62.9204 145.266C62.9366 145.29 62.9285 145.307 62.8961 145.323C62.7828 145.388 62.8232 145.453 62.8475 145.501C62.8799 145.542 62.8394 145.55 62.8475 145.591C62.8475 145.639 62.7504 145.55 62.7504 145.574C62.7342 145.647 62.6209 145.688 62.5804 145.623C62.5561 145.582 62.5723 145.55 62.459 145.509C62.4266 145.501 62.4266 145.445 62.4509 145.404C62.4751 145.363 62.459 145.331 62.4428 145.29C62.3213 145.031 62.2809 144.634 62.2809 144.285C62.289 144.09 62.3051 143.912 62.3537 143.725C62.4185 143.498 62.4994 143.271 62.6128 143.06C62.6289 143.028 62.6775 142.979 62.6451 142.947C62.5642 142.85 62.6289 142.793 62.6856 142.736C62.7423 142.679 62.7585 142.606 62.807 142.541C62.9042 142.403 62.8961 142.209 63.0256 142.087C63.2118 141.909 63.3332 141.69 63.4708 141.479C63.6408 141.211 63.827 140.952 64.0375 140.709C64.2803 140.425 64.5151 140.133 64.7903 139.873C65.0089 139.662 65.2113 139.427 65.446 139.225C65.6079 139.095 65.6322 139.054 65.5351 138.852C65.4298 138.673 65.276 138.519 65.1384 138.357Z" fill="#D4EAFC"/>
<path d="M58.201 178.929L57.9582 178.653C57.8367 178.507 57.6425 178.458 57.4482 178.426C57.3349 178.401 57.1972 178.401 57.0596 178.539C56.4525 179.139 55.8697 179.772 55.303 180.413C54.963 180.802 54.6392 181.207 54.2911 181.589C54.1049 181.791 53.9349 182.026 53.8135 182.237C53.603 182.618 53.3521 182.967 53.1254 183.324C52.8826 183.705 52.5264 184.184 52.3564 184.686C52.2916 184.865 52.2674 185.043 52.1945 185.23C51.9597 185.911 51.7493 186.754 52.1945 187.711C52.5345 188.384 53.2388 188.855 53.9997 188.903C54.7444 188.944 55.3759 188.652 55.8697 188.254C55.9668 188.173 56.0801 188.092 56.1611 187.995C57.0353 186.949 57.092 185.724 56.9625 184.727C56.833 183.883 56.752 183.105 56.4525 182.343C56.2744 181.905 56.1611 181.434 55.9425 181.021C55.5782 180.307 55.2787 179.569 54.8335 178.904C54.534 178.45 54.2425 177.996 53.9349 177.534C53.7407 177.234 53.4978 176.966 53.2469 176.707L52.8502 176.334C52.6883 176.188 52.5102 176.034 52.235 175.879C51.9355 175.717 51.6278 175.652 51.3121 175.685C50.9964 175.709 50.7779 175.839 50.6241 175.928C50.5188 175.993 50.4945 176.017 50.6483 175.952C50.7131 175.92 50.8345 175.896 50.9317 175.904C50.956 175.904 50.9721 175.904 50.9964 175.912C51.0207 175.952 51.0369 176.001 51.0612 176.042C51.0936 176.107 51.126 176.179 51.1583 176.252C51.3688 176.763 51.3121 176.828 51.2474 176.966C51.2312 176.999 51.2231 177.039 51.2231 177.096C51.215 177.136 51.2312 177.25 51.2231 177.234C51.215 177.25 51.2069 177.274 51.2069 177.29C51.2069 177.331 51.2231 177.372 51.2474 177.428C51.2879 177.501 51.2879 177.509 51.2879 177.501V177.493C51.2879 177.493 51.3121 177.469 51.3121 177.453C51.3526 177.445 51.4983 177.55 51.6521 177.761C51.7655 177.907 51.9031 178.045 52.065 178.126C52.1945 178.191 52.2674 178.296 52.3483 178.393C52.5345 178.612 52.6316 178.912 52.9231 179.026C52.9392 179.034 52.9716 179.083 52.9716 179.107C52.9797 179.253 53.1011 179.302 53.1821 179.383C53.2873 179.496 53.3926 179.602 53.4735 179.748C53.6759 180.153 53.8702 180.559 54.1049 180.94C54.4125 181.443 54.4206 182.043 54.7202 182.554C54.7363 182.578 54.7363 182.618 54.7282 182.651C54.6716 182.927 54.793 183.17 54.8982 183.397C54.9954 183.616 55.1249 183.81 55.0763 184.07C55.0601 184.159 55.0844 184.313 55.133 184.386C55.2301 184.532 55.2059 184.678 55.222 184.824C55.2544 185.173 55.222 185.497 55.3273 185.805C55.3435 185.846 55.3273 185.878 55.303 185.903C55.1735 186.008 55.2059 186.162 55.214 186.251C55.2301 186.389 55.1411 186.487 55.133 186.584C55.1168 186.706 54.963 186.681 54.9225 186.762C54.8092 186.981 54.5663 187.176 54.3316 187.192C54.194 187.2 54.1049 187.16 54.0078 187.208C53.9754 187.216 53.9511 187.192 53.9511 187.135C53.9511 187.087 53.9268 187.079 53.9026 187.054C53.8054 186.981 53.7649 186.925 53.7245 186.795C53.684 186.673 53.6759 186.479 53.7002 186.26C53.7487 185.789 53.943 185.213 54.283 184.776C54.3154 184.743 54.364 184.694 54.3478 184.654C54.2992 184.532 54.3883 184.467 54.4773 184.394C54.5583 184.33 54.6068 184.232 54.6716 184.159C54.8254 183.989 54.8821 183.754 55.0601 183.608C55.3273 183.389 55.5297 183.121 55.732 182.854C55.9911 182.513 56.2825 182.189 56.5658 181.872C56.9058 181.499 57.2377 181.118 57.602 180.753C57.9015 180.461 58.1686 180.137 58.4682 179.845C58.6705 179.65 58.7029 179.594 58.6058 179.399C58.5248 179.221 58.3548 179.083 58.201 178.929Z" fill="#D4EAFC"/>
<path d="M129.98 177.947L129.761 177.655C129.656 177.501 129.462 177.436 129.276 177.388C129.162 177.355 129.025 177.347 128.879 177.469C128.215 178.02 127.56 178.588 126.92 179.172C126.54 179.529 126.159 179.894 125.763 180.226C125.544 180.404 125.35 180.615 125.196 180.81C124.929 181.159 124.629 181.475 124.354 181.799C124.038 182.164 123.682 182.505 123.391 182.894C123.294 183.032 123.213 183.17 123.099 183.3C122.654 183.778 122.233 184.273 121.828 184.792C121.537 185.165 121.254 185.554 120.978 185.943C120.711 186.341 120.436 186.689 120.153 187.192C120.096 187.289 120.031 187.387 119.983 187.492C119.788 188.003 119.529 188.644 119.78 189.471C119.91 189.86 120.177 190.233 120.541 190.468C120.914 190.712 121.326 190.793 121.691 190.776C122.314 190.752 122.889 190.549 123.374 190.095C123.804 189.69 124.071 189.163 124.168 188.676C124.289 188.1 124.37 187.565 124.33 187.054C124.265 186.187 124.168 185.319 123.86 184.508C123.65 183.965 123.423 183.421 123.156 182.894C122.808 182.197 122.233 181.637 121.65 181.142C121.351 180.899 121.051 180.656 120.776 180.38C120.59 180.202 120.444 180.161 120.323 180.283C120.193 180.413 120.096 180.559 120.031 180.737C119.918 181.053 119.796 181.361 119.651 181.661C119.554 181.864 119.546 181.848 119.748 181.994L119.845 182.067C120.185 182.335 120.582 182.57 120.849 182.943C120.954 183.081 121.075 183.227 121.229 183.308C121.351 183.373 121.407 183.486 121.48 183.591C121.634 183.827 121.699 184.119 121.958 184.273C121.974 184.281 121.998 184.329 121.998 184.354C121.99 184.492 122.087 184.565 122.152 184.654C122.233 184.775 122.322 184.905 122.355 185.059C122.46 185.489 122.541 185.919 122.638 186.341C122.759 186.9 122.557 187.46 122.581 187.962C122.581 187.987 122.565 188.019 122.549 188.035C122.363 188.206 122.355 188.409 122.306 188.579C122.274 188.733 122.209 188.911 122.063 188.903C122.006 188.895 121.958 188.928 121.925 188.968C121.877 189.065 121.78 189.041 121.707 189.041C121.618 189.041 121.545 189.017 121.505 189.001C121.472 188.992 121.448 188.992 121.383 189.001C121.367 189.001 121.359 188.984 121.383 188.968C121.472 188.887 121.407 188.895 121.367 188.838C121.318 188.773 121.359 188.676 121.351 188.579C121.343 188.441 121.505 188.417 121.529 188.295C121.61 187.971 121.788 187.654 122.071 187.314C122.225 187.127 122.395 186.957 122.484 186.722C122.508 186.649 122.581 186.592 122.654 186.56C122.727 186.527 122.775 186.462 122.824 186.397L123.957 184.954C124.362 184.435 124.767 183.908 125.253 183.454C125.293 183.413 125.366 183.373 125.35 183.324C125.325 183.186 125.423 183.137 125.52 183.081C125.609 183.024 125.673 182.935 125.754 182.87C125.933 182.716 126.03 182.489 126.232 182.367C126.523 182.18 126.774 181.937 127.025 181.686C127.341 181.378 127.673 181.078 128.005 180.786C128.402 180.445 128.782 180.088 129.187 179.756C129.519 179.488 129.826 179.18 130.166 178.912C130.393 178.734 130.433 178.677 130.352 178.466C130.28 178.255 130.118 178.109 129.98 177.947Z" fill="#D4EAFC"/>
<path d="M76.1803 181.807L72.1895 201.513H81.9035L76.1803 181.807Z" fill="#191919"/>
<path d="M175.312 185.23L186 200.33H175L175.312 185.23Z" fill="#191919"/>
<path d="M173.693 93.4465C173.693 93.4465 173.806 94.6549 173.871 95.2793C173.952 96.1308 174.033 96.9985 174.106 97.8986C174.535 102.74 183.536 171.508 183.536 171.508L192.085 169.976C192.085 169.976 182.614 102.991 181.99 98.7015C181.796 97.331 181.602 95.9929 181.416 94.7035C181.31 93.9737 181.108 92.5464 181.108 92.5464L173.693 93.4465Z" fill="#2E367C"/>
<path d="M171.143 25.9352C156.289 24.8242 147.279 35.3098 147.279 35.3098C147.279 35.3098 128.563 53.9535 142.195 80.6336C155.827 107.314 202.827 98.6772 205.798 72.4349C208.777 46.2008 200.204 28.1086 171.143 25.9352ZM201.945 71.178C199.306 94.4441 157.633 102.108 145.547 78.4441C133.461 54.7806 150.056 38.2535 150.056 38.2535C150.056 38.2535 158.045 28.9519 171.216 29.9413C196.983 31.8714 204.576 47.9038 201.945 71.178Z" fill="#2E367C"/>
<mask id="mask0" mask-type="alpha" maskUnits="userSpaceOnUse" x="140" y="30" width="62" height="63">
<g clip-path="url(#clip1)">
<path d="M149.83 38.369C149.83 38.369 133.401 54.7608 145.37 78.2143C157.34 101.668 198.605 94.0926 201.219 71.0135C203.832 47.9451 196.311 32.0348 170.782 30.1195C157.735 29.1459 149.83 38.369 149.83 38.369Z" fill="#2E367C"/>
</g>
</mask>
<g mask="url(#mask0)">
<path d="M124.743 2.90552C124.743 2.90552 170.052 2.90552 174.369 52.6205C178.686 102.336 182.995 115.301 178.687 123.942C174.369 132.583 157.109 143.391 148.483 141.233C148.483 141.233 148.483 156.366 161.426 158.524C174.369 160.682 146.32 188.781 146.32 188.781L77.2793 175.815L64.3365 145.558C64.3365 145.558 75.1253 128.267 70.8079 113.134C66.4905 98.0012 57.8651 52.6205 62.1824 41.8125C66.4998 31.0045 94.5395 9.38847 107.482 7.23058C120.425 5.07268 124.743 2.90552 124.743 2.90552Z" fill="#FFABA2"/>
<path d="M153.411 68.5408C153.411 68.5408 161.916 71.384 174.61 68.8649C175.063 68.7723 175.978 68.5778 175.978 68.5778L175.035 60.0388C175.035 60.0388 174.277 59.7795 173.879 59.6591C170.625 58.6589 166.668 58.0662 162.739 58.2236C154.252 58.5756 142.132 63.2155 153.411 68.5408Z" fill="white"/>
<path d="M168.998 59.3443C173.657 65.0956 168.776 69.0965 166.64 69.5873C165.642 69.8189 161.925 69.5873 160.354 68.0129C157.109 64.7622 158.949 60.0852 160.844 58.7608C161.731 58.1403 162.711 57.7698 165.069 57.7698C167.426 57.7698 168.341 58.5293 168.998 59.3443Z" fill="black"/>
</g>
<path d="M187.689 120.686C187.689 120.686 187.981 101.491 190.952 101.961C193.923 102.432 198.1 126.849 198.1 126.849L187.689 120.686Z" fill="#E28E88"/>
<path d="M204.325 175.547L197.638 123.233C197.638 123.233 197.12 120.175 194.433 116.356C190.83 111.231 183.982 104.735 175.587 102.351C162.052 98.515 160.085 98.3366 158.814 100.948C156.605 105.505 182.193 115.488 183.1 117.167C185.245 121.14 173.07 114.588 169.929 119.186C166.788 123.784 167.144 124.514 167.136 126.923C167.136 126.923 166.1 127.709 164.781 134.197C164.781 134.197 163.534 153.53 166.91 155.281C170.293 157.041 172.981 149.524 173.135 146.937C173.288 144.35 172.123 165.24 176.721 170.852C178.421 172.928 182 200.33 182 200.33C191.666 200.565 201.332 200.33 211 200.33L204.325 175.547Z" fill="#FFABA2"/>
<path d="M165.234 135.008L165.412 134.975C165.509 134.959 165.574 134.87 165.638 134.773C165.679 134.716 165.711 134.643 165.687 134.513C165.614 133.921 165.614 133.297 165.655 132.672C165.679 132.299 165.719 131.918 165.792 131.545C165.833 131.35 165.865 131.139 165.873 130.961C165.906 130.645 165.962 130.337 166.027 130.028C166.1 129.68 166.205 129.339 166.294 129.007C166.326 128.893 166.335 128.771 166.383 128.658C166.545 128.22 166.747 127.782 166.974 127.458C167.015 127.393 167.055 127.344 167.087 127.32L167.144 127.263L167.249 127.198L167.686 126.939C167.962 126.752 168.294 126.639 168.601 126.493L168.795 126.412C169.111 126.29 169.427 126.185 169.751 126.087L170.738 125.852C171.305 125.739 171.872 125.706 172.446 125.625C172.778 125.568 173.126 125.584 173.458 125.536C174.033 125.479 174.608 125.495 175.182 125.487C175.571 125.471 175.968 125.503 176.356 125.536C176.866 125.584 177.384 125.568 177.902 125.601C178.161 125.617 178.42 125.641 178.671 125.706C178.833 125.747 178.93 125.739 178.963 125.666C179.003 125.584 179.02 125.495 179.011 125.398L178.93 124.895C178.914 124.782 178.922 124.782 178.704 124.757L178.59 124.749C178.194 124.692 177.805 124.709 177.409 124.66C177.255 124.644 177.093 124.636 176.947 124.668C176.842 124.692 176.737 124.676 176.623 124.676C176.389 124.66 176.138 124.611 175.919 124.684C175.903 124.692 175.862 124.684 175.846 124.684C175.741 124.644 175.652 124.676 175.555 124.684C175.425 124.692 175.304 124.717 175.174 124.709C174.802 124.684 174.43 124.676 174.065 124.717C173.588 124.749 173.118 124.684 172.641 124.774C172.616 124.782 172.584 124.774 172.56 124.774C172.357 124.725 172.131 124.774 171.92 124.822C171.726 124.863 171.548 124.911 171.337 124.903C171.264 124.895 171.135 124.919 171.07 124.944C170.941 125.001 170.811 125.001 170.682 125.017C170.374 125.057 170.058 125.13 169.775 125.26C169.743 125.276 169.702 125.284 169.678 125.276C169.54 125.244 169.378 125.333 169.297 125.382C169.168 125.447 169.038 125.479 168.925 125.528C168.787 125.601 168.682 125.56 168.561 125.609C168.253 125.763 167.954 125.925 167.63 126.047C167.452 126.12 167.274 126.217 167.12 126.347C167.071 126.387 167.006 126.412 166.95 126.428C166.893 126.436 166.828 126.477 166.772 126.509C166.675 126.55 166.529 126.687 166.407 126.809C166.31 126.931 166.229 127.044 166.148 127.166C166.011 127.401 165.897 127.636 165.8 127.871C165.598 128.382 165.452 128.893 165.29 129.404C165.274 129.445 165.25 129.509 165.266 129.534C165.306 129.615 165.266 129.688 165.226 129.769C165.193 129.842 165.177 129.931 165.153 130.004C165.096 130.183 165.104 130.377 165.039 130.547C164.942 130.807 164.902 131.083 164.861 131.367C164.813 131.723 164.756 132.072 164.724 132.429C164.683 132.851 164.667 133.272 164.667 133.702C164.667 134.059 164.707 134.408 164.756 134.773C164.797 135.016 164.813 135.073 164.926 135.105C165.031 135.089 165.128 135.04 165.234 135.008Z" fill="#0A0A0A"/>
<path d="M171.685 141.203C171.637 141.236 171.58 141.268 171.532 141.292C171.443 141.333 171.475 141.552 171.507 141.755C171.532 141.876 171.54 142.063 171.677 142.363C172.171 143.806 172.268 145.428 172.147 146.993C172.05 147.942 171.88 148.891 171.58 149.783C171.402 150.253 171.24 150.756 171.054 151.154L170.819 151.697L170.528 152.208C170.35 152.557 170.107 152.865 169.88 153.181C169.346 153.862 168.715 154.527 168.026 154.989C167.792 155.135 167.565 155.257 167.338 155.273C166.958 155.33 166.65 154.933 166.432 154.414C166.213 153.903 166.076 153.311 165.962 152.727C165.638 150.991 165.493 149.199 165.347 147.407C165.339 147.22 165.323 147.042 165.315 146.856C165.161 145.096 165.08 143.328 164.95 141.56C164.845 140.052 164.756 138.624 164.934 137.205C165.031 136.378 165.266 135.559 165.598 134.821C166.14 133.532 167.128 132.494 168.294 131.739C169.087 131.212 169.994 130.847 170.933 130.596C172.163 130.264 173.434 130.036 174.721 129.955C175.369 129.915 176.024 129.915 176.664 129.988C177.085 130.036 177.311 130.036 177.384 129.964C177.457 129.882 177.49 129.793 177.425 129.696C177.311 129.517 177.19 129.347 177.093 129.177C177.028 129.063 177.052 129.055 176.486 129.031L176.202 129.023C175.191 128.982 174.203 129.08 173.191 129.177C172.794 129.217 172.382 129.29 172.042 129.396C171.774 129.469 171.515 129.534 171.24 129.59C170.649 129.745 170.018 129.891 169.532 130.182C169.5 130.207 169.395 130.247 169.354 130.255C169.095 130.32 168.901 130.466 168.682 130.58C168.399 130.742 168.132 130.912 167.84 131.091C167.031 131.594 166.286 132.242 165.719 133.029C164.999 134.043 164.416 135.145 164.214 136.378C164.206 136.435 164.181 136.524 164.165 136.573C164.003 137.059 163.938 137.659 163.955 138.203C163.938 138.722 163.995 139.176 163.963 139.695C163.947 139.881 163.971 140.19 163.995 140.368C164.052 140.717 164.052 141.009 164.068 141.341C164.117 142.112 164.141 142.898 164.254 143.644C164.27 143.742 164.27 143.823 164.262 143.896C164.222 144.204 164.287 144.642 164.319 144.869C164.367 145.217 164.367 145.55 164.408 145.842C164.457 146.215 164.4 146.426 164.432 146.758C164.521 147.577 164.602 148.404 164.659 149.248C164.691 149.726 164.716 150.197 164.805 150.675C164.829 150.821 164.837 150.999 164.837 151.129C164.837 151.267 164.853 151.429 164.877 151.591C164.967 152.2 165.064 152.808 165.201 153.416C165.347 154.024 165.509 154.641 165.881 155.249C166.084 155.565 166.375 155.922 166.845 156.068C167.314 156.214 167.776 156.092 168.107 155.93C168.795 155.589 169.297 155.127 169.783 154.649C169.864 154.568 169.985 154.446 170.01 154.389C170.083 154.227 170.236 154.089 170.406 153.927C170.536 153.773 170.665 153.586 170.795 153.424C171.111 153.051 171.289 152.605 171.556 152.216C171.92 151.616 172.203 150.951 172.438 150.27C172.713 149.402 172.94 148.526 173.045 147.626C173.183 146.564 173.215 145.493 173.11 144.423C173.021 143.539 172.835 142.663 172.495 141.811C172.268 141.228 172.123 141.122 171.977 141.057C171.815 141.001 171.766 141.13 171.685 141.203Z" fill="#0A0A0A"/>
<path d="M159.656 100.088C159.656 100.145 159.664 100.21 159.656 100.267C159.648 100.364 159.899 100.429 160.166 100.494C160.328 100.534 160.547 100.567 160.968 100.542C161.915 100.486 162.854 100.404 163.801 100.453C164.748 100.477 165.695 100.461 166.626 100.591L168.326 100.761C168.885 100.867 169.443 100.972 169.994 101.086C170.293 101.142 170.593 101.199 170.892 101.256C171.184 101.329 171.467 101.394 171.726 101.459C172.649 101.678 173.563 101.905 174.454 102.237C174.956 102.416 175.466 102.57 175.952 102.781L177.417 103.413C177.757 103.543 178.081 103.681 178.421 103.867C179.052 104.208 179.7 104.516 180.307 104.881C180.922 105.254 181.545 105.611 182.144 105.992C183.901 107.127 185.593 108.376 187.228 109.698C187.39 109.836 187.552 109.974 187.714 110.111C189.325 111.409 190.83 112.828 192.376 114.215L193.34 115.099C193.623 115.375 193.882 115.691 194.125 116.023C194.603 116.696 194.975 117.459 195.331 118.229C195.744 119.137 196.06 120.119 196.351 121.075C196.861 122.714 197.201 124.4 197.525 126.095C197.743 127.247 197.913 128.415 198.051 129.59C198.229 131.131 198.448 132.664 198.61 134.205C198.691 134.975 198.755 135.754 198.763 136.524C198.771 137.035 198.812 137.311 198.893 137.384C198.982 137.465 199.079 137.473 199.16 137.384C199.314 137.213 199.468 137.051 199.621 136.913C199.727 136.824 199.727 136.848 199.686 136.192L199.662 135.867C199.589 134.708 199.435 133.572 199.33 132.404C199.29 131.95 199.233 131.472 199.144 131.066C199.079 130.758 199.047 130.45 199.006 130.126C198.917 129.428 198.861 128.69 198.682 128.074C198.666 128.033 198.65 127.904 198.65 127.855C198.642 127.547 198.561 127.295 198.504 127.02C198.431 126.655 198.351 126.306 198.286 125.917C198.108 124.846 197.897 123.76 197.622 122.705C197.258 121.335 196.982 119.989 196.416 118.667C196.392 118.602 196.359 118.505 196.343 118.448C196.197 117.872 195.882 117.248 195.574 116.704C195.266 116.185 194.959 115.731 194.611 115.22C194.497 115.026 194.238 114.734 194.06 114.588C193.728 114.296 193.493 114.077 193.202 113.801C192.538 113.185 191.866 112.552 191.17 112.001C191.081 111.928 191.008 111.863 190.96 111.798C190.733 111.523 190.32 111.206 190.102 111.036C189.778 110.785 189.503 110.509 189.219 110.298C188.863 110.03 188.726 109.82 188.418 109.576C187.665 108.96 186.872 108.384 186.111 107.752C185.666 107.411 185.228 107.062 184.751 106.754C184.605 106.657 184.443 106.527 184.33 106.422C184.208 106.316 184.047 106.211 183.893 106.097C182.711 105.278 181.489 104.532 180.234 103.835L178.161 102.789C177.449 102.472 176.745 102.164 176.032 101.848C175.911 101.799 175.733 101.726 175.668 101.726C175.466 101.718 175.247 101.621 175.013 101.515C174.794 101.426 174.551 101.345 174.333 101.264C173.823 101.053 173.288 100.948 172.778 100.794C172.017 100.559 171.232 100.299 170.415 100.177C169.386 99.9908 168.375 99.7719 167.33 99.6908C166.723 99.634 166.108 99.5448 165.493 99.5124L163.655 99.4718C162.643 99.407 161.639 99.5367 160.636 99.5854C159.948 99.6259 159.81 99.6421 159.664 99.7557C159.527 99.8854 159.616 99.9827 159.656 100.088Z" fill="#0A0A0A"/>
<path d="M192.757 87.1535L192.935 87.1697C193.032 87.186 193.113 87.113 193.202 87.0319C193.251 86.9832 193.299 86.9184 193.307 86.7886L193.388 85.0045C193.404 84.6477 193.413 84.2828 193.453 83.926C193.469 83.7313 193.477 83.5367 193.469 83.3664C193.453 83.0664 193.461 82.7663 193.461 82.4662C193.461 82.1338 193.493 81.7932 193.485 81.4607C193.485 81.3471 193.469 81.2336 193.477 81.112C193.502 80.6659 193.518 80.2118 193.526 79.7577L193.542 77.779L193.55 77.5762C193.526 76.9275 193.558 76.2787 193.55 75.6381C193.542 75.0947 193.599 74.5514 193.558 74.0081C193.534 73.6918 193.558 73.3674 193.534 73.0511C193.493 72.5078 193.51 71.9726 193.477 71.4293C193.453 71.0643 193.445 70.6913 193.445 70.3264C193.445 69.8398 193.372 69.3613 193.315 68.8748C193.291 68.6315 193.267 68.3882 193.283 68.1449C193.291 67.9827 193.267 67.9016 193.186 67.8773C193.097 67.853 193.008 67.8611 192.919 67.8935C192.757 67.9503 192.603 68.0152 192.441 68.0638C192.336 68.0963 192.336 68.0882 192.344 68.2909L192.352 68.3882C192.368 68.745 192.441 69.0937 192.441 69.4586C192.441 69.5965 192.457 69.7506 192.498 69.8722C192.53 69.9695 192.53 70.0669 192.538 70.1642C192.554 70.3831 192.514 70.6102 192.611 70.8048C192.619 70.821 192.619 70.8616 192.611 70.8778C192.579 70.9751 192.619 71.0562 192.635 71.1373C192.652 71.2508 192.676 71.3644 192.676 71.486C192.668 71.8185 192.668 72.1591 192.7 72.4916C192.741 72.9295 192.635 73.3512 192.7 73.781C192.7 73.8053 192.7 73.8297 192.692 73.854C192.619 74.0324 192.643 74.2432 192.668 74.4298C192.692 74.6082 192.724 74.7704 192.676 74.9569C192.66 75.0218 192.66 75.1353 192.676 75.2002C192.708 75.3299 192.684 75.4353 192.684 75.557C192.676 75.8408 192.652 76.1246 192.716 76.4004C192.724 76.4328 192.724 76.4652 192.708 76.4896C192.652 76.6031 192.684 76.7572 192.7 76.8464C192.724 76.9761 192.708 77.0897 192.724 77.2032C192.749 77.3411 192.676 77.414 192.684 77.5357C192.708 77.8357 192.724 78.1358 192.708 78.4439C192.7 78.6142 192.676 78.7845 192.708 78.963C192.716 79.0197 192.708 79.0765 192.684 79.1251C192.66 79.1738 192.66 79.2306 192.66 79.2954L192.635 80.6173C192.635 81.0957 192.635 81.5661 192.595 82.0364C192.595 82.077 192.579 82.1338 192.595 82.1581C192.652 82.2149 192.627 82.2878 192.611 82.3689C192.595 82.4419 192.595 82.5149 192.587 82.5879C192.563 82.7582 192.603 82.9204 192.571 83.0826C192.522 83.3259 192.514 83.5772 192.506 83.8286L192.457 84.7775L192.393 85.9047L192.352 86.8292C192.344 87.04 192.344 87.0805 192.449 87.1373C192.538 87.1697 192.652 87.1535 192.757 87.1535Z" fill="#020202"/>
<path d="M187.762 89.5378L187.94 89.5459C188.037 89.554 188.118 89.5135 188.199 89.4648C188.248 89.4405 188.296 89.3999 188.296 89.3107L188.329 88.2078C188.337 87.9889 188.337 87.7618 188.369 87.5429C188.385 87.4212 188.385 87.2996 188.369 87.1942C188.345 87.0076 188.353 86.8211 188.345 86.6427C188.337 86.4319 188.361 86.2291 188.353 86.0183C188.345 85.9453 188.337 85.8804 188.337 85.8074C188.353 85.5317 188.369 85.256 188.377 84.9722L188.394 83.7557C188.394 83.7152 188.402 83.6747 188.402 83.6341C188.377 83.2367 188.418 82.8394 188.418 82.4339C188.418 82.1014 188.483 81.7689 188.458 81.4283C188.442 81.2337 188.466 81.031 188.45 80.8363C188.426 80.5039 188.45 80.1714 188.434 79.8389C188.418 79.6118 188.426 79.3847 188.442 79.1577C188.458 78.8576 188.402 78.5576 188.369 78.2656C188.353 78.1197 188.345 77.9656 188.369 77.8196C188.385 77.7223 188.361 77.6655 188.28 77.6574C188.191 77.6412 188.102 77.6412 188.013 77.6655L187.527 77.7628C187.422 77.7791 187.422 77.7791 187.422 77.9007V77.9656C187.422 78.1845 187.487 78.4035 187.471 78.6225C187.463 78.7117 187.479 78.8009 187.511 78.8738C187.544 78.9306 187.535 78.9955 187.535 79.0523C187.544 79.182 187.495 79.328 187.584 79.4496C187.592 79.4577 187.592 79.4821 187.584 79.4902C187.552 79.5469 187.584 79.5956 187.6 79.6524C187.616 79.7253 187.633 79.7902 187.625 79.8632C187.608 80.074 187.6 80.2768 187.625 80.4876C187.657 80.7552 187.544 81.0147 187.6 81.2824C187.6 81.2986 187.6 81.3148 187.592 81.3229C187.519 81.4364 187.544 81.5581 187.56 81.6797C187.576 81.7933 187.608 81.8906 187.56 82.0041C187.544 82.0446 187.535 82.1176 187.552 82.1582C187.584 82.2393 187.56 82.3041 187.552 82.3771C187.544 82.5474 187.511 82.7258 187.576 82.8961C187.584 82.9205 187.584 82.9367 187.568 82.9529C187.511 83.0178 187.544 83.1151 187.56 83.1719C187.584 83.253 187.56 83.3259 187.584 83.3908C187.608 83.4719 187.535 83.5206 187.544 83.5936C187.568 83.7801 187.584 83.9666 187.56 84.1531C187.552 84.2585 187.527 84.364 187.56 84.4694C187.568 84.5018 187.56 84.5424 187.535 84.5667C187.511 84.5991 187.511 84.6316 187.511 84.6721L187.495 85.4831C187.495 85.775 187.511 86.0669 187.471 86.3589C187.471 86.3832 187.455 86.4157 187.479 86.4319C187.535 86.4724 187.511 86.513 187.495 86.5616C187.479 86.6022 187.487 86.6508 187.479 86.6995C187.463 86.8049 187.503 86.9103 187.471 87.0076C187.422 87.1536 187.422 87.3158 187.414 87.4699L187.382 88.0538L187.349 88.7512C187.333 88.9458 187.349 89.1323 187.341 89.3188C187.333 89.4486 187.341 89.4729 187.446 89.5054C187.544 89.5459 187.657 89.5378 187.762 89.5378Z" fill="#020202"/>
</g>
<defs>
<clipPath id="clip0">
<rect width="269" height="207" fill="white"/>
</clipPath>
<clipPath id="clip1">
<rect width="60.7128" height="62.4429" fill="white" transform="translate(140.997 30.0549)"/>
</clipPath>
</defs>
</svg>
